%TF.GenerationSoftware,KiCad,Pcbnew,8.0.4*%
%TF.CreationDate,2024-10-26T11:38:54+11:00*%
%TF.ProjectId,INK-128DA28,494e4b2d-3132-4384-9441-32382e6b6963,1.1*%
%TF.SameCoordinates,Original*%
%TF.FileFunction,Drillmap*%
%TF.FilePolarity,Positive*%
%FSLAX45Y45*%
G04 Gerber Fmt 4.5, Leading zero omitted, Abs format (unit mm)*
G04 Created by KiCad (PCBNEW 8.0.4) date 2024-10-26 11:38:54*
%MOMM*%
%LPD*%
G01*
G04 APERTURE LIST*
%ADD10C,0.254000*%
%ADD11C,0.200000*%
%ADD12C,0.320000*%
G04 APERTURE END LIST*
D10*
X14855111Y-10816511D02*
X14855111Y-14093111D01*
X8097111Y-14601111D02*
G75*
G02*
X7997109Y-14501111I-1J100001D01*
G01*
X8097111Y-9267111D02*
X14448711Y-9267111D01*
X7997111Y-14501111D02*
X7997111Y-9367111D01*
X14601111Y-9419511D02*
X14601111Y-10562511D01*
X7997111Y-9367111D02*
G75*
G02*
X8097111Y-9267111I99999J1D01*
G01*
X14501111Y-14601111D02*
X8097111Y-14601111D01*
X14601111Y-10562511D02*
X14855111Y-10816511D01*
X14601111Y-14347111D02*
X14601111Y-14501111D01*
X14855111Y-14093111D02*
X14601111Y-14347111D01*
X14601111Y-14501111D02*
G75*
G02*
X14501111Y-14601111I-100001J1D01*
G01*
X14448711Y-9267111D02*
X14601111Y-9419511D01*
D11*
D12*
X9234111Y-14187111D02*
X9554111Y-14507111D01*
X9554111Y-14187111D02*
X9234111Y-14507111D01*
X9361111Y-9361111D02*
X9681111Y-9681111D01*
X9681111Y-9361111D02*
X9361111Y-9681111D01*
X14441111Y-10885111D02*
X14761111Y-11205111D01*
X14761111Y-10885111D02*
X14441111Y-11205111D01*
X14441111Y-13679111D02*
X14761111Y-13999111D01*
X14761111Y-13679111D02*
X14441111Y-13999111D01*
D11*
X8245187Y-14925294D02*
X8245187Y-14725294D01*
X8245187Y-14725294D02*
X8292806Y-14725294D01*
X8292806Y-14725294D02*
X8321378Y-14734818D01*
X8321378Y-14734818D02*
X8340426Y-14753866D01*
X8340426Y-14753866D02*
X8349949Y-14772913D01*
X8349949Y-14772913D02*
X8359473Y-14811009D01*
X8359473Y-14811009D02*
X8359473Y-14839580D01*
X8359473Y-14839580D02*
X8349949Y-14877675D01*
X8349949Y-14877675D02*
X8340426Y-14896723D01*
X8340426Y-14896723D02*
X8321378Y-14915771D01*
X8321378Y-14915771D02*
X8292806Y-14925294D01*
X8292806Y-14925294D02*
X8245187Y-14925294D01*
X8445188Y-14925294D02*
X8445188Y-14791961D01*
X8445188Y-14830056D02*
X8454711Y-14811009D01*
X8454711Y-14811009D02*
X8464235Y-14801485D01*
X8464235Y-14801485D02*
X8483283Y-14791961D01*
X8483283Y-14791961D02*
X8502330Y-14791961D01*
X8568997Y-14925294D02*
X8568997Y-14791961D01*
X8568997Y-14725294D02*
X8559473Y-14734818D01*
X8559473Y-14734818D02*
X8568997Y-14744342D01*
X8568997Y-14744342D02*
X8578521Y-14734818D01*
X8578521Y-14734818D02*
X8568997Y-14725294D01*
X8568997Y-14725294D02*
X8568997Y-14744342D01*
X8692807Y-14925294D02*
X8673759Y-14915771D01*
X8673759Y-14915771D02*
X8664235Y-14896723D01*
X8664235Y-14896723D02*
X8664235Y-14725294D01*
X8797568Y-14925294D02*
X8778521Y-14915771D01*
X8778521Y-14915771D02*
X8768997Y-14896723D01*
X8768997Y-14896723D02*
X8768997Y-14725294D01*
X9026140Y-14925294D02*
X9026140Y-14725294D01*
X9026140Y-14725294D02*
X9092807Y-14868152D01*
X9092807Y-14868152D02*
X9159473Y-14725294D01*
X9159473Y-14725294D02*
X9159473Y-14925294D01*
X9340426Y-14925294D02*
X9340426Y-14820533D01*
X9340426Y-14820533D02*
X9330902Y-14801485D01*
X9330902Y-14801485D02*
X9311854Y-14791961D01*
X9311854Y-14791961D02*
X9273759Y-14791961D01*
X9273759Y-14791961D02*
X9254711Y-14801485D01*
X9340426Y-14915771D02*
X9321378Y-14925294D01*
X9321378Y-14925294D02*
X9273759Y-14925294D01*
X9273759Y-14925294D02*
X9254711Y-14915771D01*
X9254711Y-14915771D02*
X9245188Y-14896723D01*
X9245188Y-14896723D02*
X9245188Y-14877675D01*
X9245188Y-14877675D02*
X9254711Y-14858628D01*
X9254711Y-14858628D02*
X9273759Y-14849104D01*
X9273759Y-14849104D02*
X9321378Y-14849104D01*
X9321378Y-14849104D02*
X9340426Y-14839580D01*
X9435664Y-14791961D02*
X9435664Y-14991961D01*
X9435664Y-14801485D02*
X9454711Y-14791961D01*
X9454711Y-14791961D02*
X9492807Y-14791961D01*
X9492807Y-14791961D02*
X9511854Y-14801485D01*
X9511854Y-14801485D02*
X9521378Y-14811009D01*
X9521378Y-14811009D02*
X9530902Y-14830056D01*
X9530902Y-14830056D02*
X9530902Y-14887199D01*
X9530902Y-14887199D02*
X9521378Y-14906247D01*
X9521378Y-14906247D02*
X9511854Y-14915771D01*
X9511854Y-14915771D02*
X9492807Y-14925294D01*
X9492807Y-14925294D02*
X9454711Y-14925294D01*
X9454711Y-14925294D02*
X9435664Y-14915771D01*
X9616616Y-14906247D02*
X9626140Y-14915771D01*
X9626140Y-14915771D02*
X9616616Y-14925294D01*
X9616616Y-14925294D02*
X9607092Y-14915771D01*
X9607092Y-14915771D02*
X9616616Y-14906247D01*
X9616616Y-14906247D02*
X9616616Y-14925294D01*
X9616616Y-14801485D02*
X9626140Y-14811009D01*
X9626140Y-14811009D02*
X9616616Y-14820533D01*
X9616616Y-14820533D02*
X9607092Y-14811009D01*
X9607092Y-14811009D02*
X9616616Y-14801485D01*
X9616616Y-14801485D02*
X9616616Y-14820533D01*
X7784411Y-15153811D02*
X7984411Y-15353811D01*
X7984411Y-15153811D02*
X7784411Y-15353811D01*
X8226140Y-15145294D02*
X8349949Y-15145294D01*
X8349949Y-15145294D02*
X8283283Y-15221485D01*
X8283283Y-15221485D02*
X8311854Y-15221485D01*
X8311854Y-15221485D02*
X8330902Y-15231009D01*
X8330902Y-15231009D02*
X8340426Y-15240533D01*
X8340426Y-15240533D02*
X8349949Y-15259580D01*
X8349949Y-15259580D02*
X8349949Y-15307199D01*
X8349949Y-15307199D02*
X8340426Y-15326247D01*
X8340426Y-15326247D02*
X8330902Y-15335771D01*
X8330902Y-15335771D02*
X8311854Y-15345294D01*
X8311854Y-15345294D02*
X8254711Y-15345294D01*
X8254711Y-15345294D02*
X8235664Y-15335771D01*
X8235664Y-15335771D02*
X8226140Y-15326247D01*
X8435664Y-15326247D02*
X8445188Y-15335771D01*
X8445188Y-15335771D02*
X8435664Y-15345294D01*
X8435664Y-15345294D02*
X8426140Y-15335771D01*
X8426140Y-15335771D02*
X8435664Y-15326247D01*
X8435664Y-15326247D02*
X8435664Y-15345294D01*
X8521378Y-15164342D02*
X8530902Y-15154818D01*
X8530902Y-15154818D02*
X8549949Y-15145294D01*
X8549949Y-15145294D02*
X8597569Y-15145294D01*
X8597569Y-15145294D02*
X8616616Y-15154818D01*
X8616616Y-15154818D02*
X8626140Y-15164342D01*
X8626140Y-15164342D02*
X8635664Y-15183390D01*
X8635664Y-15183390D02*
X8635664Y-15202437D01*
X8635664Y-15202437D02*
X8626140Y-15231009D01*
X8626140Y-15231009D02*
X8511854Y-15345294D01*
X8511854Y-15345294D02*
X8635664Y-15345294D01*
X8759473Y-15145294D02*
X8778521Y-15145294D01*
X8778521Y-15145294D02*
X8797569Y-15154818D01*
X8797569Y-15154818D02*
X8807092Y-15164342D01*
X8807092Y-15164342D02*
X8816616Y-15183390D01*
X8816616Y-15183390D02*
X8826140Y-15221485D01*
X8826140Y-15221485D02*
X8826140Y-15269104D01*
X8826140Y-15269104D02*
X8816616Y-15307199D01*
X8816616Y-15307199D02*
X8807092Y-15326247D01*
X8807092Y-15326247D02*
X8797569Y-15335771D01*
X8797569Y-15335771D02*
X8778521Y-15345294D01*
X8778521Y-15345294D02*
X8759473Y-15345294D01*
X8759473Y-15345294D02*
X8740426Y-15335771D01*
X8740426Y-15335771D02*
X8730902Y-15326247D01*
X8730902Y-15326247D02*
X8721378Y-15307199D01*
X8721378Y-15307199D02*
X8711854Y-15269104D01*
X8711854Y-15269104D02*
X8711854Y-15221485D01*
X8711854Y-15221485D02*
X8721378Y-15183390D01*
X8721378Y-15183390D02*
X8730902Y-15164342D01*
X8730902Y-15164342D02*
X8740426Y-15154818D01*
X8740426Y-15154818D02*
X8759473Y-15145294D01*
X8949949Y-15145294D02*
X8968997Y-15145294D01*
X8968997Y-15145294D02*
X8988045Y-15154818D01*
X8988045Y-15154818D02*
X8997569Y-15164342D01*
X8997569Y-15164342D02*
X9007092Y-15183390D01*
X9007092Y-15183390D02*
X9016616Y-15221485D01*
X9016616Y-15221485D02*
X9016616Y-15269104D01*
X9016616Y-15269104D02*
X9007092Y-15307199D01*
X9007092Y-15307199D02*
X8997569Y-15326247D01*
X8997569Y-15326247D02*
X8988045Y-15335771D01*
X8988045Y-15335771D02*
X8968997Y-15345294D01*
X8968997Y-15345294D02*
X8949949Y-15345294D01*
X8949949Y-15345294D02*
X8930902Y-15335771D01*
X8930902Y-15335771D02*
X8921378Y-15326247D01*
X8921378Y-15326247D02*
X8911854Y-15307199D01*
X8911854Y-15307199D02*
X8902330Y-15269104D01*
X8902330Y-15269104D02*
X8902330Y-15221485D01*
X8902330Y-15221485D02*
X8911854Y-15183390D01*
X8911854Y-15183390D02*
X8921378Y-15164342D01*
X8921378Y-15164342D02*
X8930902Y-15154818D01*
X8930902Y-15154818D02*
X8949949Y-15145294D01*
X9102330Y-15345294D02*
X9102330Y-15211961D01*
X9102330Y-15231009D02*
X9111854Y-15221485D01*
X9111854Y-15221485D02*
X9130902Y-15211961D01*
X9130902Y-15211961D02*
X9159473Y-15211961D01*
X9159473Y-15211961D02*
X9178521Y-15221485D01*
X9178521Y-15221485D02*
X9188045Y-15240533D01*
X9188045Y-15240533D02*
X9188045Y-15345294D01*
X9188045Y-15240533D02*
X9197569Y-15221485D01*
X9197569Y-15221485D02*
X9216616Y-15211961D01*
X9216616Y-15211961D02*
X9245188Y-15211961D01*
X9245188Y-15211961D02*
X9264235Y-15221485D01*
X9264235Y-15221485D02*
X9273759Y-15240533D01*
X9273759Y-15240533D02*
X9273759Y-15345294D01*
X9368997Y-15345294D02*
X9368997Y-15211961D01*
X9368997Y-15231009D02*
X9378521Y-15221485D01*
X9378521Y-15221485D02*
X9397569Y-15211961D01*
X9397569Y-15211961D02*
X9426140Y-15211961D01*
X9426140Y-15211961D02*
X9445188Y-15221485D01*
X9445188Y-15221485D02*
X9454711Y-15240533D01*
X9454711Y-15240533D02*
X9454711Y-15345294D01*
X9454711Y-15240533D02*
X9464235Y-15221485D01*
X9464235Y-15221485D02*
X9483283Y-15211961D01*
X9483283Y-15211961D02*
X9511854Y-15211961D01*
X9511854Y-15211961D02*
X9530902Y-15221485D01*
X9530902Y-15221485D02*
X9540426Y-15240533D01*
X9540426Y-15240533D02*
X9540426Y-15345294D01*
X9930902Y-15135771D02*
X9759473Y-15392913D01*
X10188045Y-15145294D02*
X10207093Y-15145294D01*
X10207093Y-15145294D02*
X10226140Y-15154818D01*
X10226140Y-15154818D02*
X10235664Y-15164342D01*
X10235664Y-15164342D02*
X10245188Y-15183390D01*
X10245188Y-15183390D02*
X10254712Y-15221485D01*
X10254712Y-15221485D02*
X10254712Y-15269104D01*
X10254712Y-15269104D02*
X10245188Y-15307199D01*
X10245188Y-15307199D02*
X10235664Y-15326247D01*
X10235664Y-15326247D02*
X10226140Y-15335771D01*
X10226140Y-15335771D02*
X10207093Y-15345294D01*
X10207093Y-15345294D02*
X10188045Y-15345294D01*
X10188045Y-15345294D02*
X10168997Y-15335771D01*
X10168997Y-15335771D02*
X10159473Y-15326247D01*
X10159473Y-15326247D02*
X10149950Y-15307199D01*
X10149950Y-15307199D02*
X10140426Y-15269104D01*
X10140426Y-15269104D02*
X10140426Y-15221485D01*
X10140426Y-15221485D02*
X10149950Y-15183390D01*
X10149950Y-15183390D02*
X10159473Y-15164342D01*
X10159473Y-15164342D02*
X10168997Y-15154818D01*
X10168997Y-15154818D02*
X10188045Y-15145294D01*
X10340426Y-15326247D02*
X10349950Y-15335771D01*
X10349950Y-15335771D02*
X10340426Y-15345294D01*
X10340426Y-15345294D02*
X10330902Y-15335771D01*
X10330902Y-15335771D02*
X10340426Y-15326247D01*
X10340426Y-15326247D02*
X10340426Y-15345294D01*
X10540426Y-15345294D02*
X10426140Y-15345294D01*
X10483283Y-15345294D02*
X10483283Y-15145294D01*
X10483283Y-15145294D02*
X10464235Y-15173866D01*
X10464235Y-15173866D02*
X10445188Y-15192913D01*
X10445188Y-15192913D02*
X10426140Y-15202437D01*
X10616616Y-15164342D02*
X10626140Y-15154818D01*
X10626140Y-15154818D02*
X10645188Y-15145294D01*
X10645188Y-15145294D02*
X10692807Y-15145294D01*
X10692807Y-15145294D02*
X10711854Y-15154818D01*
X10711854Y-15154818D02*
X10721378Y-15164342D01*
X10721378Y-15164342D02*
X10730902Y-15183390D01*
X10730902Y-15183390D02*
X10730902Y-15202437D01*
X10730902Y-15202437D02*
X10721378Y-15231009D01*
X10721378Y-15231009D02*
X10607093Y-15345294D01*
X10607093Y-15345294D02*
X10730902Y-15345294D01*
X10902331Y-15145294D02*
X10864235Y-15145294D01*
X10864235Y-15145294D02*
X10845188Y-15154818D01*
X10845188Y-15154818D02*
X10835664Y-15164342D01*
X10835664Y-15164342D02*
X10816616Y-15192913D01*
X10816616Y-15192913D02*
X10807093Y-15231009D01*
X10807093Y-15231009D02*
X10807093Y-15307199D01*
X10807093Y-15307199D02*
X10816616Y-15326247D01*
X10816616Y-15326247D02*
X10826140Y-15335771D01*
X10826140Y-15335771D02*
X10845188Y-15345294D01*
X10845188Y-15345294D02*
X10883283Y-15345294D01*
X10883283Y-15345294D02*
X10902331Y-15335771D01*
X10902331Y-15335771D02*
X10911854Y-15326247D01*
X10911854Y-15326247D02*
X10921378Y-15307199D01*
X10921378Y-15307199D02*
X10921378Y-15259580D01*
X10921378Y-15259580D02*
X10911854Y-15240533D01*
X10911854Y-15240533D02*
X10902331Y-15231009D01*
X10902331Y-15231009D02*
X10883283Y-15221485D01*
X10883283Y-15221485D02*
X10845188Y-15221485D01*
X10845188Y-15221485D02*
X10826140Y-15231009D01*
X10826140Y-15231009D02*
X10816616Y-15240533D01*
X10816616Y-15240533D02*
X10807093Y-15259580D01*
X11045188Y-15145294D02*
X11064235Y-15145294D01*
X11064235Y-15145294D02*
X11083283Y-15154818D01*
X11083283Y-15154818D02*
X11092807Y-15164342D01*
X11092807Y-15164342D02*
X11102331Y-15183390D01*
X11102331Y-15183390D02*
X11111854Y-15221485D01*
X11111854Y-15221485D02*
X11111854Y-15269104D01*
X11111854Y-15269104D02*
X11102331Y-15307199D01*
X11102331Y-15307199D02*
X11092807Y-15326247D01*
X11092807Y-15326247D02*
X11083283Y-15335771D01*
X11083283Y-15335771D02*
X11064235Y-15345294D01*
X11064235Y-15345294D02*
X11045188Y-15345294D01*
X11045188Y-15345294D02*
X11026140Y-15335771D01*
X11026140Y-15335771D02*
X11016616Y-15326247D01*
X11016616Y-15326247D02*
X11007093Y-15307199D01*
X11007093Y-15307199D02*
X10997569Y-15269104D01*
X10997569Y-15269104D02*
X10997569Y-15221485D01*
X10997569Y-15221485D02*
X11007093Y-15183390D01*
X11007093Y-15183390D02*
X11016616Y-15164342D01*
X11016616Y-15164342D02*
X11026140Y-15154818D01*
X11026140Y-15154818D02*
X11045188Y-15145294D01*
X11188045Y-15145294D02*
X11188045Y-15183390D01*
X11264235Y-15145294D02*
X11264235Y-15183390D01*
X11559474Y-15421485D02*
X11549950Y-15411961D01*
X11549950Y-15411961D02*
X11530902Y-15383390D01*
X11530902Y-15383390D02*
X11521378Y-15364342D01*
X11521378Y-15364342D02*
X11511854Y-15335771D01*
X11511854Y-15335771D02*
X11502331Y-15288152D01*
X11502331Y-15288152D02*
X11502331Y-15250056D01*
X11502331Y-15250056D02*
X11511854Y-15202437D01*
X11511854Y-15202437D02*
X11521378Y-15173866D01*
X11521378Y-15173866D02*
X11530902Y-15154818D01*
X11530902Y-15154818D02*
X11549950Y-15126247D01*
X11549950Y-15126247D02*
X11559474Y-15116723D01*
X11721378Y-15211961D02*
X11721378Y-15345294D01*
X11673759Y-15135771D02*
X11626140Y-15278628D01*
X11626140Y-15278628D02*
X11749950Y-15278628D01*
X11978521Y-15345294D02*
X11978521Y-15145294D01*
X12064235Y-15345294D02*
X12064235Y-15240533D01*
X12064235Y-15240533D02*
X12054712Y-15221485D01*
X12054712Y-15221485D02*
X12035664Y-15211961D01*
X12035664Y-15211961D02*
X12007093Y-15211961D01*
X12007093Y-15211961D02*
X11988045Y-15221485D01*
X11988045Y-15221485D02*
X11978521Y-15231009D01*
X12188045Y-15345294D02*
X12168997Y-15335771D01*
X12168997Y-15335771D02*
X12159474Y-15326247D01*
X12159474Y-15326247D02*
X12149950Y-15307199D01*
X12149950Y-15307199D02*
X12149950Y-15250056D01*
X12149950Y-15250056D02*
X12159474Y-15231009D01*
X12159474Y-15231009D02*
X12168997Y-15221485D01*
X12168997Y-15221485D02*
X12188045Y-15211961D01*
X12188045Y-15211961D02*
X12216616Y-15211961D01*
X12216616Y-15211961D02*
X12235664Y-15221485D01*
X12235664Y-15221485D02*
X12245188Y-15231009D01*
X12245188Y-15231009D02*
X12254712Y-15250056D01*
X12254712Y-15250056D02*
X12254712Y-15307199D01*
X12254712Y-15307199D02*
X12245188Y-15326247D01*
X12245188Y-15326247D02*
X12235664Y-15335771D01*
X12235664Y-15335771D02*
X12216616Y-15345294D01*
X12216616Y-15345294D02*
X12188045Y-15345294D01*
X12368997Y-15345294D02*
X12349950Y-15335771D01*
X12349950Y-15335771D02*
X12340426Y-15316723D01*
X12340426Y-15316723D02*
X12340426Y-15145294D01*
X12521378Y-15335771D02*
X12502331Y-15345294D01*
X12502331Y-15345294D02*
X12464235Y-15345294D01*
X12464235Y-15345294D02*
X12445188Y-15335771D01*
X12445188Y-15335771D02*
X12435664Y-15316723D01*
X12435664Y-15316723D02*
X12435664Y-15240533D01*
X12435664Y-15240533D02*
X12445188Y-15221485D01*
X12445188Y-15221485D02*
X12464235Y-15211961D01*
X12464235Y-15211961D02*
X12502331Y-15211961D01*
X12502331Y-15211961D02*
X12521378Y-15221485D01*
X12521378Y-15221485D02*
X12530902Y-15240533D01*
X12530902Y-15240533D02*
X12530902Y-15259580D01*
X12530902Y-15259580D02*
X12435664Y-15278628D01*
X12607093Y-15335771D02*
X12626140Y-15345294D01*
X12626140Y-15345294D02*
X12664235Y-15345294D01*
X12664235Y-15345294D02*
X12683283Y-15335771D01*
X12683283Y-15335771D02*
X12692807Y-15316723D01*
X12692807Y-15316723D02*
X12692807Y-15307199D01*
X12692807Y-15307199D02*
X12683283Y-15288152D01*
X12683283Y-15288152D02*
X12664235Y-15278628D01*
X12664235Y-15278628D02*
X12635664Y-15278628D01*
X12635664Y-15278628D02*
X12616616Y-15269104D01*
X12616616Y-15269104D02*
X12607093Y-15250056D01*
X12607093Y-15250056D02*
X12607093Y-15240533D01*
X12607093Y-15240533D02*
X12616616Y-15221485D01*
X12616616Y-15221485D02*
X12635664Y-15211961D01*
X12635664Y-15211961D02*
X12664235Y-15211961D01*
X12664235Y-15211961D02*
X12683283Y-15221485D01*
X12759474Y-15421485D02*
X12768997Y-15411961D01*
X12768997Y-15411961D02*
X12788045Y-15383390D01*
X12788045Y-15383390D02*
X12797569Y-15364342D01*
X12797569Y-15364342D02*
X12807093Y-15335771D01*
X12807093Y-15335771D02*
X12816616Y-15288152D01*
X12816616Y-15288152D02*
X12816616Y-15250056D01*
X12816616Y-15250056D02*
X12807093Y-15202437D01*
X12807093Y-15202437D02*
X12797569Y-15173866D01*
X12797569Y-15173866D02*
X12788045Y-15154818D01*
X12788045Y-15154818D02*
X12768997Y-15126247D01*
X12768997Y-15126247D02*
X12759474Y-15116723D01*
X13121378Y-15421485D02*
X13111855Y-15411961D01*
X13111855Y-15411961D02*
X13092807Y-15383390D01*
X13092807Y-15383390D02*
X13083283Y-15364342D01*
X13083283Y-15364342D02*
X13073759Y-15335771D01*
X13073759Y-15335771D02*
X13064236Y-15288152D01*
X13064236Y-15288152D02*
X13064236Y-15250056D01*
X13064236Y-15250056D02*
X13073759Y-15202437D01*
X13073759Y-15202437D02*
X13083283Y-15173866D01*
X13083283Y-15173866D02*
X13092807Y-15154818D01*
X13092807Y-15154818D02*
X13111855Y-15126247D01*
X13111855Y-15126247D02*
X13121378Y-15116723D01*
X13197569Y-15211961D02*
X13197569Y-15345294D01*
X13197569Y-15231009D02*
X13207093Y-15221485D01*
X13207093Y-15221485D02*
X13226140Y-15211961D01*
X13226140Y-15211961D02*
X13254712Y-15211961D01*
X13254712Y-15211961D02*
X13273759Y-15221485D01*
X13273759Y-15221485D02*
X13283283Y-15240533D01*
X13283283Y-15240533D02*
X13283283Y-15345294D01*
X13407093Y-15345294D02*
X13388045Y-15335771D01*
X13388045Y-15335771D02*
X13378521Y-15326247D01*
X13378521Y-15326247D02*
X13368997Y-15307199D01*
X13368997Y-15307199D02*
X13368997Y-15250056D01*
X13368997Y-15250056D02*
X13378521Y-15231009D01*
X13378521Y-15231009D02*
X13388045Y-15221485D01*
X13388045Y-15221485D02*
X13407093Y-15211961D01*
X13407093Y-15211961D02*
X13435664Y-15211961D01*
X13435664Y-15211961D02*
X13454712Y-15221485D01*
X13454712Y-15221485D02*
X13464236Y-15231009D01*
X13464236Y-15231009D02*
X13473759Y-15250056D01*
X13473759Y-15250056D02*
X13473759Y-15307199D01*
X13473759Y-15307199D02*
X13464236Y-15326247D01*
X13464236Y-15326247D02*
X13454712Y-15335771D01*
X13454712Y-15335771D02*
X13435664Y-15345294D01*
X13435664Y-15345294D02*
X13407093Y-15345294D01*
X13530902Y-15211961D02*
X13607093Y-15211961D01*
X13559474Y-15145294D02*
X13559474Y-15316723D01*
X13559474Y-15316723D02*
X13568997Y-15335771D01*
X13568997Y-15335771D02*
X13588045Y-15345294D01*
X13588045Y-15345294D02*
X13607093Y-15345294D01*
X13826140Y-15211961D02*
X13826140Y-15411961D01*
X13826140Y-15221485D02*
X13845188Y-15211961D01*
X13845188Y-15211961D02*
X13883283Y-15211961D01*
X13883283Y-15211961D02*
X13902331Y-15221485D01*
X13902331Y-15221485D02*
X13911855Y-15231009D01*
X13911855Y-15231009D02*
X13921378Y-15250056D01*
X13921378Y-15250056D02*
X13921378Y-15307199D01*
X13921378Y-15307199D02*
X13911855Y-15326247D01*
X13911855Y-15326247D02*
X13902331Y-15335771D01*
X13902331Y-15335771D02*
X13883283Y-15345294D01*
X13883283Y-15345294D02*
X13845188Y-15345294D01*
X13845188Y-15345294D02*
X13826140Y-15335771D01*
X14035664Y-15345294D02*
X14016617Y-15335771D01*
X14016617Y-15335771D02*
X14007093Y-15316723D01*
X14007093Y-15316723D02*
X14007093Y-15145294D01*
X14197569Y-15345294D02*
X14197569Y-15240533D01*
X14197569Y-15240533D02*
X14188045Y-15221485D01*
X14188045Y-15221485D02*
X14168998Y-15211961D01*
X14168998Y-15211961D02*
X14130902Y-15211961D01*
X14130902Y-15211961D02*
X14111855Y-15221485D01*
X14197569Y-15335771D02*
X14178521Y-15345294D01*
X14178521Y-15345294D02*
X14130902Y-15345294D01*
X14130902Y-15345294D02*
X14111855Y-15335771D01*
X14111855Y-15335771D02*
X14102331Y-15316723D01*
X14102331Y-15316723D02*
X14102331Y-15297675D01*
X14102331Y-15297675D02*
X14111855Y-15278628D01*
X14111855Y-15278628D02*
X14130902Y-15269104D01*
X14130902Y-15269104D02*
X14178521Y-15269104D01*
X14178521Y-15269104D02*
X14197569Y-15259580D01*
X14264236Y-15211961D02*
X14340426Y-15211961D01*
X14292807Y-15145294D02*
X14292807Y-15316723D01*
X14292807Y-15316723D02*
X14302331Y-15335771D01*
X14302331Y-15335771D02*
X14321378Y-15345294D01*
X14321378Y-15345294D02*
X14340426Y-15345294D01*
X14483283Y-15335771D02*
X14464236Y-15345294D01*
X14464236Y-15345294D02*
X14426140Y-15345294D01*
X14426140Y-15345294D02*
X14407093Y-15335771D01*
X14407093Y-15335771D02*
X14397569Y-15316723D01*
X14397569Y-15316723D02*
X14397569Y-15240533D01*
X14397569Y-15240533D02*
X14407093Y-15221485D01*
X14407093Y-15221485D02*
X14426140Y-15211961D01*
X14426140Y-15211961D02*
X14464236Y-15211961D01*
X14464236Y-15211961D02*
X14483283Y-15221485D01*
X14483283Y-15221485D02*
X14492807Y-15240533D01*
X14492807Y-15240533D02*
X14492807Y-15259580D01*
X14492807Y-15259580D02*
X14397569Y-15278628D01*
X14664236Y-15345294D02*
X14664236Y-15145294D01*
X14664236Y-15335771D02*
X14645188Y-15345294D01*
X14645188Y-15345294D02*
X14607093Y-15345294D01*
X14607093Y-15345294D02*
X14588045Y-15335771D01*
X14588045Y-15335771D02*
X14578521Y-15326247D01*
X14578521Y-15326247D02*
X14568998Y-15307199D01*
X14568998Y-15307199D02*
X14568998Y-15250056D01*
X14568998Y-15250056D02*
X14578521Y-15231009D01*
X14578521Y-15231009D02*
X14588045Y-15221485D01*
X14588045Y-15221485D02*
X14607093Y-15211961D01*
X14607093Y-15211961D02*
X14645188Y-15211961D01*
X14645188Y-15211961D02*
X14664236Y-15221485D01*
X14740426Y-15421485D02*
X14749950Y-15411961D01*
X14749950Y-15411961D02*
X14768998Y-15383390D01*
X14768998Y-15383390D02*
X14778521Y-15364342D01*
X14778521Y-15364342D02*
X14788045Y-15335771D01*
X14788045Y-15335771D02*
X14797569Y-15288152D01*
X14797569Y-15288152D02*
X14797569Y-15250056D01*
X14797569Y-15250056D02*
X14788045Y-15202437D01*
X14788045Y-15202437D02*
X14778521Y-15173866D01*
X14778521Y-15173866D02*
X14768998Y-15154818D01*
X14768998Y-15154818D02*
X14749950Y-15126247D01*
X14749950Y-15126247D02*
X14740426Y-15116723D01*
M02*
