%TF.GenerationSoftware,KiCad,Pcbnew,8.0.4*%
%TF.CreationDate,2024-10-26T11:38:54+11:00*%
%TF.ProjectId,INK-128DA28,494e4b2d-3132-4384-9441-32382e6b6963,1.1*%
%TF.SameCoordinates,Original*%
%TF.FileFunction,Drillmap*%
%TF.FilePolarity,Positive*%
%FSLAX45Y45*%
G04 Gerber Fmt 4.5, Leading zero omitted, Abs format (unit mm)*
G04 Created by KiCad (PCBNEW 8.0.4) date 2024-10-26 11:38:54*
%MOMM*%
%LPD*%
G01*
G04 APERTURE LIST*
%ADD10C,0.254000*%
%ADD11C,0.200000*%
%ADD12C,0.100000*%
%ADD13C,0.110000*%
%ADD14C,0.230000*%
G04 APERTURE END LIST*
D10*
X14855111Y-10816511D02*
X14855111Y-14093111D01*
X8097111Y-14601111D02*
G75*
G02*
X7997109Y-14501111I-1J100001D01*
G01*
X8097111Y-9267111D02*
X14448711Y-9267111D01*
X7997111Y-14501111D02*
X7997111Y-9367111D01*
X14601111Y-9419511D02*
X14601111Y-10562511D01*
X7997111Y-9367111D02*
G75*
G02*
X8097111Y-9267111I99999J1D01*
G01*
X14501111Y-14601111D02*
X8097111Y-14601111D01*
X14601111Y-10562511D02*
X14855111Y-10816511D01*
X14601111Y-14347111D02*
X14601111Y-14501111D01*
X14855111Y-14093111D02*
X14601111Y-14347111D01*
X14601111Y-14501111D02*
G75*
G02*
X14501111Y-14601111I-100001J1D01*
G01*
X14448711Y-9267111D02*
X14601111Y-9419511D01*
D11*
D12*
X8108000Y-12883200D02*
X8148000Y-12923200D01*
X8148000Y-12883200D02*
X8108000Y-12923200D01*
X8311200Y-12578400D02*
X8351200Y-12618400D01*
X8351200Y-12578400D02*
X8311200Y-12618400D01*
X8311200Y-13188000D02*
X8351200Y-13228000D01*
X8351200Y-13188000D02*
X8311200Y-13228000D01*
X8539800Y-12883200D02*
X8579800Y-12923200D01*
X8579800Y-12883200D02*
X8539800Y-12923200D01*
X8743000Y-12578400D02*
X8783000Y-12618400D01*
X8783000Y-12578400D02*
X8743000Y-12618400D01*
X8743000Y-13188000D02*
X8783000Y-13228000D01*
X8783000Y-13188000D02*
X8743000Y-13228000D01*
X8768400Y-11918000D02*
X8808400Y-11958000D01*
X8808400Y-11918000D02*
X8768400Y-11958000D01*
X9149400Y-11664000D02*
X9189400Y-11704000D01*
X9189400Y-11664000D02*
X9149400Y-11704000D01*
X9394000Y-11127000D02*
X9434000Y-11167000D01*
X9434000Y-11127000D02*
X9394000Y-11167000D01*
X9428800Y-12146600D02*
X9468800Y-12186600D01*
X9468800Y-12146600D02*
X9428800Y-12186600D01*
X9657400Y-11130600D02*
X9697400Y-11170600D01*
X9697400Y-11130600D02*
X9657400Y-11170600D01*
X9733600Y-12045000D02*
X9773600Y-12085000D01*
X9773600Y-12045000D02*
X9733600Y-12085000D01*
X9759000Y-10444800D02*
X9799000Y-10484800D01*
X9799000Y-10444800D02*
X9759000Y-10484800D01*
X9835200Y-11079800D02*
X9875200Y-11119800D01*
X9875200Y-11079800D02*
X9835200Y-11119800D01*
X9962200Y-13734100D02*
X10002200Y-13774100D01*
X10002200Y-13734100D02*
X9962200Y-13774100D01*
X10013000Y-13543600D02*
X10053000Y-13583600D01*
X10053000Y-13543600D02*
X10013000Y-13583600D01*
X10066000Y-10623000D02*
X10106000Y-10663000D01*
X10106000Y-10623000D02*
X10066000Y-10663000D01*
X10088900Y-10749900D02*
X10128900Y-10789900D01*
X10128900Y-10749900D02*
X10088900Y-10789900D01*
X10114600Y-13797600D02*
X10154600Y-13837600D01*
X10154600Y-13797600D02*
X10114600Y-13837600D01*
X10216200Y-13899200D02*
X10256200Y-13939200D01*
X10256200Y-13899200D02*
X10216200Y-13939200D01*
X10216200Y-14102400D02*
X10256200Y-14142400D01*
X10256200Y-14102400D02*
X10216200Y-14142400D01*
X10241600Y-13734100D02*
X10281600Y-13774100D01*
X10281600Y-13734100D02*
X10241600Y-13774100D01*
X10317800Y-10216200D02*
X10357800Y-10256200D01*
X10357800Y-10216200D02*
X10317800Y-10256200D01*
X10343200Y-11232200D02*
X10383200Y-11272200D01*
X10383200Y-11232200D02*
X10343200Y-11272200D01*
X10368600Y-10825800D02*
X10408600Y-10865800D01*
X10408600Y-10825800D02*
X10368600Y-10865800D01*
X10394000Y-11994200D02*
X10434000Y-12034200D01*
X10434000Y-11994200D02*
X10394000Y-12034200D01*
X10419400Y-11144000D02*
X10459400Y-11184000D01*
X10459400Y-11144000D02*
X10419400Y-11184000D01*
X10419400Y-11333800D02*
X10459400Y-11373800D01*
X10459400Y-11333800D02*
X10419400Y-11373800D01*
X10470200Y-14102400D02*
X10510200Y-14142400D01*
X10510200Y-14102400D02*
X10470200Y-14142400D01*
X10506000Y-10013000D02*
X10546000Y-10053000D01*
X10546000Y-10013000D02*
X10506000Y-10053000D01*
X10648000Y-10851200D02*
X10688000Y-10891200D01*
X10688000Y-10851200D02*
X10648000Y-10891200D01*
X10749600Y-14051600D02*
X10789600Y-14091600D01*
X10789600Y-14051600D02*
X10749600Y-14091600D01*
X10876600Y-11892600D02*
X10916600Y-11932600D01*
X10916600Y-11892600D02*
X10876600Y-11932600D01*
X10927400Y-10317800D02*
X10967400Y-10357800D01*
X10967400Y-10317800D02*
X10927400Y-10357800D01*
X11105200Y-10800400D02*
X11145200Y-10840400D01*
X11145200Y-10800400D02*
X11105200Y-10840400D01*
X11105200Y-11333800D02*
X11145200Y-11373800D01*
X11145200Y-11333800D02*
X11105200Y-11373800D01*
X11130600Y-14077000D02*
X11170600Y-14117000D01*
X11170600Y-14077000D02*
X11130600Y-14117000D01*
X11153000Y-11144000D02*
X11193000Y-11184000D01*
X11193000Y-11144000D02*
X11153000Y-11184000D01*
X11156000Y-11460800D02*
X11196000Y-11500800D01*
X11196000Y-11460800D02*
X11156000Y-11500800D01*
X11384600Y-14077000D02*
X11424600Y-14117000D01*
X11424600Y-14077000D02*
X11384600Y-14117000D01*
X11562400Y-11130600D02*
X11602400Y-11170600D01*
X11602400Y-11130600D02*
X11562400Y-11170600D01*
X11637000Y-10723000D02*
X11677000Y-10763000D01*
X11677000Y-10723000D02*
X11637000Y-10763000D01*
X11689400Y-10876600D02*
X11729400Y-10916600D01*
X11729400Y-10876600D02*
X11689400Y-10916600D01*
X11778300Y-11270300D02*
X11818300Y-11310300D01*
X11818300Y-11270300D02*
X11778300Y-11310300D01*
X11832000Y-9809800D02*
X11872000Y-9849800D01*
X11872000Y-9809800D02*
X11832000Y-9849800D01*
X11867200Y-11054400D02*
X11907200Y-11094400D01*
X11907200Y-11054400D02*
X11867200Y-11094400D01*
X12045000Y-9860600D02*
X12085000Y-9900600D01*
X12085000Y-9860600D02*
X12045000Y-9900600D01*
X12180000Y-9861000D02*
X12220000Y-9901000D01*
X12220000Y-9861000D02*
X12180000Y-9901000D01*
X12487000Y-10824000D02*
X12527000Y-10864000D01*
X12527000Y-10824000D02*
X12487000Y-10864000D01*
X12502200Y-12426000D02*
X12542200Y-12466000D01*
X12542200Y-12426000D02*
X12502200Y-12466000D01*
X12578400Y-11943400D02*
X12618400Y-11983400D01*
X12618400Y-11943400D02*
X12578400Y-11983400D01*
X12615000Y-10750000D02*
X12655000Y-10790000D01*
X12655000Y-10750000D02*
X12615000Y-10790000D01*
X12668000Y-13949000D02*
X12708000Y-13989000D01*
X12708000Y-13949000D02*
X12668000Y-13989000D01*
X12680000Y-9987600D02*
X12720000Y-10027600D01*
X12720000Y-9987600D02*
X12680000Y-10027600D01*
X12705400Y-10673400D02*
X12745400Y-10713400D01*
X12745400Y-10673400D02*
X12705400Y-10713400D01*
X13021000Y-11774000D02*
X13061000Y-11814000D01*
X13061000Y-11774000D02*
X13021000Y-11814000D01*
X13172000Y-9806000D02*
X13212000Y-9846000D01*
X13212000Y-9806000D02*
X13172000Y-9846000D01*
X13543600Y-10978200D02*
X13583600Y-11018200D01*
X13583600Y-10978200D02*
X13543600Y-11018200D01*
X13558761Y-9784400D02*
X13598761Y-9824400D01*
X13598761Y-9784400D02*
X13558761Y-9824400D01*
X13645200Y-9888000D02*
X13685200Y-9928000D01*
X13685200Y-9888000D02*
X13645200Y-9928000D01*
X13924600Y-11537000D02*
X13964600Y-11577000D01*
X13964600Y-11537000D02*
X13924600Y-11577000D01*
X9555480Y-9906000D02*
G75*
G02*
X9494520Y-9906000I-30480J0D01*
G01*
X9494520Y-9906000D02*
G75*
G02*
X9555480Y-9906000I30480J0D01*
G01*
X9834880Y-10947400D02*
G75*
G02*
X9773920Y-10947400I-30480J0D01*
G01*
X9773920Y-10947400D02*
G75*
G02*
X9834880Y-10947400I30480J0D01*
G01*
X10088880Y-9855200D02*
G75*
G02*
X10027920Y-9855200I-30480J0D01*
G01*
X10027920Y-9855200D02*
G75*
G02*
X10088880Y-9855200I30480J0D01*
G01*
X10241280Y-13385800D02*
G75*
G02*
X10180320Y-13385800I-30480J0D01*
G01*
X10180320Y-13385800D02*
G75*
G02*
X10241280Y-13385800I30480J0D01*
G01*
X10266680Y-12827000D02*
G75*
G02*
X10205720Y-12827000I-30480J0D01*
G01*
X10205720Y-12827000D02*
G75*
G02*
X10266680Y-12827000I30480J0D01*
G01*
X10469880Y-12319000D02*
G75*
G02*
X10408920Y-12319000I-30480J0D01*
G01*
X10408920Y-12319000D02*
G75*
G02*
X10469880Y-12319000I30480J0D01*
G01*
X10800080Y-9906000D02*
G75*
G02*
X10739120Y-9906000I-30480J0D01*
G01*
X10739120Y-9906000D02*
G75*
G02*
X10800080Y-9906000I30480J0D01*
G01*
X11003280Y-10642600D02*
G75*
G02*
X10942320Y-10642600I-30480J0D01*
G01*
X10942320Y-10642600D02*
G75*
G02*
X11003280Y-10642600I30480J0D01*
G01*
X11079480Y-13030200D02*
G75*
G02*
X11018520Y-13030200I-30480J0D01*
G01*
X11018520Y-13030200D02*
G75*
G02*
X11079480Y-13030200I30480J0D01*
G01*
X11206480Y-11734800D02*
G75*
G02*
X11145520Y-11734800I-30480J0D01*
G01*
X11145520Y-11734800D02*
G75*
G02*
X11206480Y-11734800I30480J0D01*
G01*
X11409680Y-10972800D02*
G75*
G02*
X11348720Y-10972800I-30480J0D01*
G01*
X11348720Y-10972800D02*
G75*
G02*
X11409680Y-10972800I30480J0D01*
G01*
X11435080Y-13157200D02*
G75*
G02*
X11374120Y-13157200I-30480J0D01*
G01*
X11374120Y-13157200D02*
G75*
G02*
X11435080Y-13157200I30480J0D01*
G01*
X11892280Y-13893800D02*
G75*
G02*
X11831320Y-13893800I-30480J0D01*
G01*
X11831320Y-13893800D02*
G75*
G02*
X11892280Y-13893800I30480J0D01*
G01*
X12222480Y-10947400D02*
G75*
G02*
X12161520Y-10947400I-30480J0D01*
G01*
X12161520Y-10947400D02*
G75*
G02*
X12222480Y-10947400I30480J0D01*
G01*
X12390041Y-9527461D02*
G75*
G02*
X12329081Y-9527461I-30480J0D01*
G01*
X12329081Y-9527461D02*
G75*
G02*
X12390041Y-9527461I30480J0D01*
G01*
X13484480Y-10586000D02*
G75*
G02*
X13423520Y-10586000I-30480J0D01*
G01*
X13423520Y-10586000D02*
G75*
G02*
X13484480Y-10586000I30480J0D01*
G01*
X13721080Y-12192000D02*
G75*
G02*
X13660120Y-12192000I-30480J0D01*
G01*
X13660120Y-12192000D02*
G75*
G02*
X13721080Y-12192000I30480J0D01*
G01*
X13795480Y-13090000D02*
G75*
G02*
X13734520Y-13090000I-30480J0D01*
G01*
X13734520Y-13090000D02*
G75*
G02*
X13795480Y-13090000I30480J0D01*
G01*
X14004480Y-10523000D02*
G75*
G02*
X13943520Y-10523000I-30480J0D01*
G01*
X13943520Y-10523000D02*
G75*
G02*
X14004480Y-10523000I30480J0D01*
G01*
X14347480Y-12915000D02*
G75*
G02*
X14286520Y-12915000I-30480J0D01*
G01*
X14286520Y-12915000D02*
G75*
G02*
X14347480Y-12915000I30480J0D01*
G01*
X14533880Y-9753600D02*
G75*
G02*
X14472920Y-9753600I-30480J0D01*
G01*
X14472920Y-9753600D02*
G75*
G02*
X14533880Y-9753600I30480J0D01*
G01*
X14533880Y-10439400D02*
G75*
G02*
X14472920Y-10439400I-30480J0D01*
G01*
X14472920Y-10439400D02*
G75*
G02*
X14533880Y-10439400I30480J0D01*
G01*
X9982200Y-12403511D02*
X9982200Y-12483511D01*
X9942200Y-12443511D02*
X10022200Y-12443511D01*
X9982200Y-12653511D02*
X9982200Y-12733511D01*
X9942200Y-12693511D02*
X10022200Y-12693511D01*
X9982200Y-12964800D02*
X9982200Y-13044800D01*
X9942200Y-13004800D02*
X10022200Y-13004800D01*
X9982200Y-13214800D02*
X9982200Y-13294800D01*
X9942200Y-13254800D02*
X10022200Y-13254800D01*
X11049000Y-12609200D02*
X11049000Y-12689200D01*
X11009000Y-12649200D02*
X11089000Y-12649200D01*
X11049000Y-13371200D02*
X11049000Y-13451200D01*
X11009000Y-13411200D02*
X11089000Y-13411200D01*
X11303000Y-12609200D02*
X11303000Y-12689200D01*
X11263000Y-12649200D02*
X11343000Y-12649200D01*
X11303000Y-13371200D02*
X11303000Y-13451200D01*
X11263000Y-13411200D02*
X11343000Y-13411200D01*
X11557000Y-12609200D02*
X11557000Y-12689200D01*
X11517000Y-12649200D02*
X11597000Y-12649200D01*
X11557000Y-13371200D02*
X11557000Y-13451200D01*
X11517000Y-13411200D02*
X11597000Y-13411200D01*
X11811000Y-12609200D02*
X11811000Y-12689200D01*
X11771000Y-12649200D02*
X11851000Y-12649200D01*
X11811000Y-13371200D02*
X11811000Y-13451200D01*
X11771000Y-13411200D02*
X11851000Y-13411200D01*
X12065000Y-12609200D02*
X12065000Y-12689200D01*
X12025000Y-12649200D02*
X12105000Y-12649200D01*
X12065000Y-13371200D02*
X12065000Y-13451200D01*
X12025000Y-13411200D02*
X12105000Y-13411200D01*
X12319000Y-12609200D02*
X12319000Y-12689200D01*
X12279000Y-12649200D02*
X12359000Y-12649200D01*
X12319000Y-13371200D02*
X12319000Y-13451200D01*
X12279000Y-13411200D02*
X12359000Y-13411200D01*
X12573000Y-12609200D02*
X12573000Y-12689200D01*
X12533000Y-12649200D02*
X12613000Y-12649200D01*
X12573000Y-13371200D02*
X12573000Y-13451200D01*
X12533000Y-13411200D02*
X12613000Y-13411200D01*
X12827000Y-12609200D02*
X12827000Y-12689200D01*
X12787000Y-12649200D02*
X12867000Y-12649200D01*
X12827000Y-13371200D02*
X12827000Y-13451200D01*
X12787000Y-13411200D02*
X12867000Y-13411200D01*
X13081000Y-12609200D02*
X13081000Y-12689200D01*
X13041000Y-12649200D02*
X13121000Y-12649200D01*
X13081000Y-13371200D02*
X13081000Y-13451200D01*
X13041000Y-13411200D02*
X13121000Y-13411200D01*
X13335000Y-12609200D02*
X13335000Y-12689200D01*
X13295000Y-12649200D02*
X13375000Y-12649200D01*
X13335000Y-13371200D02*
X13335000Y-13451200D01*
X13295000Y-13411200D02*
X13375000Y-13411200D01*
X13589000Y-12609200D02*
X13589000Y-12689200D01*
X13549000Y-12649200D02*
X13629000Y-12649200D01*
X13589000Y-13371200D02*
X13589000Y-13451200D01*
X13549000Y-13411200D02*
X13629000Y-13411200D01*
X13843000Y-12609200D02*
X13843000Y-12689200D01*
X13803000Y-12649200D02*
X13883000Y-12649200D01*
X13843000Y-13371200D02*
X13843000Y-13451200D01*
X13803000Y-13411200D02*
X13883000Y-13411200D01*
X14097000Y-12609200D02*
X14097000Y-12689200D01*
X14057000Y-12649200D02*
X14137000Y-12649200D01*
X14097000Y-13371200D02*
X14097000Y-13451200D01*
X14057000Y-13411200D02*
X14137000Y-13411200D01*
X14351000Y-12609200D02*
X14351000Y-12689200D01*
X14311000Y-12649200D02*
X14391000Y-12649200D01*
X14351000Y-13371200D02*
X14351000Y-13451200D01*
X14311000Y-13411200D02*
X14391000Y-13411200D01*
X8771188Y-10803188D02*
X8771188Y-10736012D01*
X8704012Y-10736012D01*
X8704012Y-10803188D01*
X8771188Y-10803188D01*
X8771188Y-11053188D02*
X8771188Y-10986012D01*
X8704012Y-10986012D01*
X8704012Y-11053188D01*
X8771188Y-11053188D01*
X8971188Y-10803188D02*
X8971188Y-10736012D01*
X8904012Y-10736012D01*
X8904012Y-10803188D01*
X8971188Y-10803188D01*
X8971188Y-11053188D02*
X8971188Y-10986012D01*
X8904012Y-10986012D01*
X8904012Y-11053188D01*
X8971188Y-11053188D01*
X8524161Y-13819261D02*
X8574161Y-13769261D01*
X8524161Y-13719261D01*
X8474161Y-13769261D01*
X8524161Y-13819261D01*
X8474161Y-13669261D02*
X8474161Y-13869261D01*
X8574161Y-13869261D02*
G75*
G02*
X8474161Y-13869261I-50000J0D01*
G01*
X8574161Y-13869261D02*
X8574161Y-13669261D01*
X8574161Y-13669261D02*
G75*
G03*
X8474161Y-13669261I-50000J0D01*
G01*
X8824161Y-14289261D02*
X8874161Y-14239261D01*
X8824161Y-14189261D01*
X8774161Y-14239261D01*
X8824161Y-14289261D01*
X8724161Y-14289261D02*
X8924161Y-14289261D01*
X8924161Y-14189261D02*
G75*
G02*
X8924161Y-14289261I0J-50000D01*
G01*
X8924161Y-14189261D02*
X8724161Y-14189261D01*
X8724161Y-14189261D02*
G75*
G03*
X8724161Y-14289261I0J-50000D01*
G01*
X9124161Y-13819261D02*
X9174161Y-13769261D01*
X9124161Y-13719261D01*
X9074161Y-13769261D01*
X9124161Y-13819261D01*
X9074161Y-13669261D02*
X9074161Y-13869261D01*
X9174161Y-13869261D02*
G75*
G02*
X9074161Y-13869261I-50000J0D01*
G01*
X9174161Y-13869261D02*
X9174161Y-13669261D01*
X9174161Y-13669261D02*
G75*
G03*
X9074161Y-13669261I-50000J0D01*
G01*
X9871000Y-9578000D02*
X9921000Y-9528000D01*
X9871000Y-9478000D01*
X9821000Y-9528000D01*
X9871000Y-9578000D01*
X10088000Y-11699000D02*
X10138000Y-11649000D01*
X10088000Y-11599000D01*
X10038000Y-11649000D01*
X10088000Y-11699000D01*
X10125000Y-9578000D02*
X10175000Y-9528000D01*
X10125000Y-9478000D01*
X10075000Y-9528000D01*
X10125000Y-9578000D01*
X10342000Y-11699000D02*
X10392000Y-11649000D01*
X10342000Y-11599000D01*
X10292000Y-11649000D01*
X10342000Y-11699000D01*
X10379000Y-9578000D02*
X10429000Y-9528000D01*
X10379000Y-9478000D01*
X10329000Y-9528000D01*
X10379000Y-9578000D01*
X10596000Y-11699000D02*
X10646000Y-11649000D01*
X10596000Y-11599000D01*
X10546000Y-11649000D01*
X10596000Y-11699000D01*
X10633000Y-9578000D02*
X10683000Y-9528000D01*
X10633000Y-9478000D01*
X10583000Y-9528000D01*
X10633000Y-9578000D01*
X10784500Y-14402500D02*
X10834500Y-14352500D01*
X10784500Y-14302500D01*
X10734500Y-14352500D01*
X10784500Y-14402500D01*
X10850000Y-11699000D02*
X10900000Y-11649000D01*
X10850000Y-11599000D01*
X10800000Y-11649000D01*
X10850000Y-11699000D01*
X10887000Y-9578000D02*
X10937000Y-9528000D01*
X10887000Y-9478000D01*
X10837000Y-9528000D01*
X10887000Y-9578000D01*
X11038500Y-14402500D02*
X11088500Y-14352500D01*
X11038500Y-14302500D01*
X10988500Y-14352500D01*
X11038500Y-14402500D01*
X11141000Y-9578000D02*
X11191000Y-9528000D01*
X11141000Y-9478000D01*
X11091000Y-9528000D01*
X11141000Y-9578000D01*
X11292500Y-14402500D02*
X11342500Y-14352500D01*
X11292500Y-14302500D01*
X11242500Y-14352500D01*
X11292500Y-14402500D01*
X11395000Y-9578000D02*
X11445000Y-9528000D01*
X11395000Y-9478000D01*
X11345000Y-9528000D01*
X11395000Y-9578000D01*
X11546500Y-14402500D02*
X11596500Y-14352500D01*
X11546500Y-14302500D01*
X11496500Y-14352500D01*
X11546500Y-14402500D01*
X11649000Y-9578000D02*
X11699000Y-9528000D01*
X11649000Y-9478000D01*
X11599000Y-9528000D01*
X11649000Y-9578000D01*
X11800500Y-14402500D02*
X11850500Y-14352500D01*
X11800500Y-14302500D01*
X11750500Y-14352500D01*
X11800500Y-14402500D01*
X11903000Y-9578000D02*
X11953000Y-9528000D01*
X11903000Y-9478000D01*
X11853000Y-9528000D01*
X11903000Y-9578000D01*
X12054500Y-14402500D02*
X12104500Y-14352500D01*
X12054500Y-14302500D01*
X12004500Y-14352500D01*
X12054500Y-14402500D01*
X12157000Y-9578000D02*
X12207000Y-9528000D01*
X12157000Y-9478000D01*
X12107000Y-9528000D01*
X12157000Y-9578000D01*
X12308500Y-14402500D02*
X12358500Y-14352500D01*
X12308500Y-14302500D01*
X12258500Y-14352500D01*
X12308500Y-14402500D01*
X12562500Y-14402500D02*
X12612500Y-14352500D01*
X12562500Y-14302500D01*
X12512500Y-14352500D01*
X12562500Y-14402500D01*
X12562761Y-9577461D02*
X12612761Y-9527461D01*
X12562761Y-9477461D01*
X12512761Y-9527461D01*
X12562761Y-9577461D01*
X12816761Y-9577461D02*
X12866761Y-9527461D01*
X12816761Y-9477461D01*
X12766761Y-9527461D01*
X12816761Y-9577461D01*
X13070761Y-9577461D02*
X13120761Y-9527461D01*
X13070761Y-9477461D01*
X13020761Y-9527461D01*
X13070761Y-9577461D01*
X13070761Y-14403461D02*
X13120761Y-14353461D01*
X13070761Y-14303461D01*
X13020761Y-14353461D01*
X13070761Y-14403461D01*
X13324761Y-9577461D02*
X13374761Y-9527461D01*
X13324761Y-9477461D01*
X13274761Y-9527461D01*
X13324761Y-9577461D01*
X13324761Y-14403461D02*
X13374761Y-14353461D01*
X13324761Y-14303461D01*
X13274761Y-14353461D01*
X13324761Y-14403461D01*
X13335000Y-12140400D02*
X13385000Y-12090400D01*
X13335000Y-12040400D01*
X13285000Y-12090400D01*
X13335000Y-12140400D01*
X13335000Y-12394400D02*
X13385000Y-12344400D01*
X13335000Y-12294400D01*
X13285000Y-12344400D01*
X13335000Y-12394400D01*
X13578761Y-9577461D02*
X13628761Y-9527461D01*
X13578761Y-9477461D01*
X13528761Y-9527461D01*
X13578761Y-9577461D01*
X13578761Y-14403461D02*
X13628761Y-14353461D01*
X13578761Y-14303461D01*
X13528761Y-14353461D01*
X13578761Y-14403461D01*
X13832761Y-9577461D02*
X13882761Y-9527461D01*
X13832761Y-9477461D01*
X13782761Y-9527461D01*
X13832761Y-9577461D01*
X13832761Y-14403461D02*
X13882761Y-14353461D01*
X13832761Y-14303461D01*
X13782761Y-14353461D01*
X13832761Y-14403461D01*
X14086761Y-9577461D02*
X14136761Y-9527461D01*
X14086761Y-9477461D01*
X14036761Y-9527461D01*
X14086761Y-9577461D01*
X14086761Y-14403461D02*
X14136761Y-14353461D01*
X14086761Y-14303461D01*
X14036761Y-14353461D01*
X14086761Y-14403461D01*
X14340761Y-9577461D02*
X14390761Y-9527461D01*
X14340761Y-9477461D01*
X14290761Y-9527461D01*
X14340761Y-9577461D01*
X14340761Y-14403461D02*
X14390761Y-14353461D01*
X14340761Y-14303461D01*
X14290761Y-14353461D01*
X14340761Y-14403461D01*
X14366000Y-11609000D02*
X14416000Y-11559000D01*
X14366000Y-11509000D01*
X14316000Y-11559000D01*
X14366000Y-11609000D01*
X14366000Y-11863000D02*
X14416000Y-11813000D01*
X14366000Y-11763000D01*
X14316000Y-11813000D01*
X14366000Y-11863000D01*
X14366000Y-12117000D02*
X14416000Y-12067000D01*
X14366000Y-12017000D01*
X14316000Y-12067000D01*
X14366000Y-12117000D01*
X14620000Y-11609000D02*
X14670000Y-11559000D01*
X14620000Y-11509000D01*
X14570000Y-11559000D01*
X14620000Y-11609000D01*
X14620000Y-11863000D02*
X14670000Y-11813000D01*
X14620000Y-11763000D01*
X14570000Y-11813000D01*
X14620000Y-11863000D01*
X14620000Y-12117000D02*
X14670000Y-12067000D01*
X14620000Y-12017000D01*
X14570000Y-12067000D01*
X14620000Y-12117000D01*
D13*
X8129000Y-9372000D02*
X8239000Y-9482000D01*
X8239000Y-9372000D02*
X8129000Y-9482000D01*
X8239000Y-9427000D02*
G75*
G02*
X8129000Y-9427000I-55000J0D01*
G01*
X8129000Y-9427000D02*
G75*
G02*
X8239000Y-9427000I55000J0D01*
G01*
X8129000Y-9822000D02*
X8239000Y-9932000D01*
X8239000Y-9822000D02*
X8129000Y-9932000D01*
X8239000Y-9877000D02*
G75*
G02*
X8129000Y-9877000I-55000J0D01*
G01*
X8129000Y-9877000D02*
G75*
G02*
X8239000Y-9877000I55000J0D01*
G01*
X8779000Y-9372000D02*
X8889000Y-9482000D01*
X8889000Y-9372000D02*
X8779000Y-9482000D01*
X8889000Y-9427000D02*
G75*
G02*
X8779000Y-9427000I-55000J0D01*
G01*
X8779000Y-9427000D02*
G75*
G02*
X8889000Y-9427000I55000J0D01*
G01*
X8779000Y-9822000D02*
X8889000Y-9932000D01*
X8889000Y-9822000D02*
X8779000Y-9932000D01*
X8889000Y-9877000D02*
G75*
G02*
X8779000Y-9877000I-55000J0D01*
G01*
X8779000Y-9877000D02*
G75*
G02*
X8889000Y-9877000I55000J0D01*
G01*
X9444600Y-12924400D02*
X9554600Y-13034400D01*
X9554600Y-12924400D02*
X9444600Y-13034400D01*
X9554600Y-12979400D02*
G75*
G02*
X9444600Y-12979400I-55000J0D01*
G01*
X9444600Y-12979400D02*
G75*
G02*
X9554600Y-12979400I55000J0D01*
G01*
X9444600Y-13940400D02*
X9554600Y-14050400D01*
X9554600Y-13940400D02*
X9444600Y-14050400D01*
X9554600Y-13995400D02*
G75*
G02*
X9444600Y-13995400I-55000J0D01*
G01*
X9444600Y-13995400D02*
G75*
G02*
X9554600Y-13995400I55000J0D01*
G01*
D14*
X8336600Y-10179600D02*
X8566600Y-10409600D01*
X8566600Y-10179600D02*
X8336600Y-10409600D01*
X8451600Y-10179600D02*
X8451600Y-10409600D01*
X8336600Y-10294600D02*
X8566600Y-10294600D01*
X8336600Y-11379600D02*
X8566600Y-11609600D01*
X8566600Y-11379600D02*
X8336600Y-11609600D01*
X8451600Y-11379600D02*
X8451600Y-11609600D01*
X8336600Y-11494600D02*
X8566600Y-11494600D01*
D11*
X8245187Y-14925294D02*
X8245187Y-14725294D01*
X8245187Y-14725294D02*
X8292806Y-14725294D01*
X8292806Y-14725294D02*
X8321378Y-14734818D01*
X8321378Y-14734818D02*
X8340426Y-14753866D01*
X8340426Y-14753866D02*
X8349949Y-14772913D01*
X8349949Y-14772913D02*
X8359473Y-14811009D01*
X8359473Y-14811009D02*
X8359473Y-14839580D01*
X8359473Y-14839580D02*
X8349949Y-14877675D01*
X8349949Y-14877675D02*
X8340426Y-14896723D01*
X8340426Y-14896723D02*
X8321378Y-14915771D01*
X8321378Y-14915771D02*
X8292806Y-14925294D01*
X8292806Y-14925294D02*
X8245187Y-14925294D01*
X8445188Y-14925294D02*
X8445188Y-14791961D01*
X8445188Y-14830056D02*
X8454711Y-14811009D01*
X8454711Y-14811009D02*
X8464235Y-14801485D01*
X8464235Y-14801485D02*
X8483283Y-14791961D01*
X8483283Y-14791961D02*
X8502330Y-14791961D01*
X8568997Y-14925294D02*
X8568997Y-14791961D01*
X8568997Y-14725294D02*
X8559473Y-14734818D01*
X8559473Y-14734818D02*
X8568997Y-14744342D01*
X8568997Y-14744342D02*
X8578521Y-14734818D01*
X8578521Y-14734818D02*
X8568997Y-14725294D01*
X8568997Y-14725294D02*
X8568997Y-14744342D01*
X8692807Y-14925294D02*
X8673759Y-14915771D01*
X8673759Y-14915771D02*
X8664235Y-14896723D01*
X8664235Y-14896723D02*
X8664235Y-14725294D01*
X8797568Y-14925294D02*
X8778521Y-14915771D01*
X8778521Y-14915771D02*
X8768997Y-14896723D01*
X8768997Y-14896723D02*
X8768997Y-14725294D01*
X9026140Y-14925294D02*
X9026140Y-14725294D01*
X9026140Y-14725294D02*
X9092807Y-14868152D01*
X9092807Y-14868152D02*
X9159473Y-14725294D01*
X9159473Y-14725294D02*
X9159473Y-14925294D01*
X9340426Y-14925294D02*
X9340426Y-14820533D01*
X9340426Y-14820533D02*
X9330902Y-14801485D01*
X9330902Y-14801485D02*
X9311854Y-14791961D01*
X9311854Y-14791961D02*
X9273759Y-14791961D01*
X9273759Y-14791961D02*
X9254711Y-14801485D01*
X9340426Y-14915771D02*
X9321378Y-14925294D01*
X9321378Y-14925294D02*
X9273759Y-14925294D01*
X9273759Y-14925294D02*
X9254711Y-14915771D01*
X9254711Y-14915771D02*
X9245188Y-14896723D01*
X9245188Y-14896723D02*
X9245188Y-14877675D01*
X9245188Y-14877675D02*
X9254711Y-14858628D01*
X9254711Y-14858628D02*
X9273759Y-14849104D01*
X9273759Y-14849104D02*
X9321378Y-14849104D01*
X9321378Y-14849104D02*
X9340426Y-14839580D01*
X9435664Y-14791961D02*
X9435664Y-14991961D01*
X9435664Y-14801485D02*
X9454711Y-14791961D01*
X9454711Y-14791961D02*
X9492807Y-14791961D01*
X9492807Y-14791961D02*
X9511854Y-14801485D01*
X9511854Y-14801485D02*
X9521378Y-14811009D01*
X9521378Y-14811009D02*
X9530902Y-14830056D01*
X9530902Y-14830056D02*
X9530902Y-14887199D01*
X9530902Y-14887199D02*
X9521378Y-14906247D01*
X9521378Y-14906247D02*
X9511854Y-14915771D01*
X9511854Y-14915771D02*
X9492807Y-14925294D01*
X9492807Y-14925294D02*
X9454711Y-14925294D01*
X9454711Y-14925294D02*
X9435664Y-14915771D01*
X9616616Y-14906247D02*
X9626140Y-14915771D01*
X9626140Y-14915771D02*
X9616616Y-14925294D01*
X9616616Y-14925294D02*
X9607092Y-14915771D01*
X9607092Y-14915771D02*
X9616616Y-14906247D01*
X9616616Y-14906247D02*
X9616616Y-14925294D01*
X9616616Y-14801485D02*
X9626140Y-14811009D01*
X9626140Y-14811009D02*
X9616616Y-14820533D01*
X9616616Y-14820533D02*
X9607092Y-14811009D01*
X9607092Y-14811009D02*
X9616616Y-14801485D01*
X9616616Y-14801485D02*
X9616616Y-14820533D01*
D12*
X7944411Y-15233811D02*
X7984411Y-15273811D01*
X7984411Y-15233811D02*
X7944411Y-15273811D01*
D11*
X8283283Y-15145294D02*
X8302330Y-15145294D01*
X8302330Y-15145294D02*
X8321378Y-15154818D01*
X8321378Y-15154818D02*
X8330902Y-15164342D01*
X8330902Y-15164342D02*
X8340426Y-15183390D01*
X8340426Y-15183390D02*
X8349949Y-15221485D01*
X8349949Y-15221485D02*
X8349949Y-15269104D01*
X8349949Y-15269104D02*
X8340426Y-15307199D01*
X8340426Y-15307199D02*
X8330902Y-15326247D01*
X8330902Y-15326247D02*
X8321378Y-15335771D01*
X8321378Y-15335771D02*
X8302330Y-15345294D01*
X8302330Y-15345294D02*
X8283283Y-15345294D01*
X8283283Y-15345294D02*
X8264235Y-15335771D01*
X8264235Y-15335771D02*
X8254711Y-15326247D01*
X8254711Y-15326247D02*
X8245187Y-15307199D01*
X8245187Y-15307199D02*
X8235664Y-15269104D01*
X8235664Y-15269104D02*
X8235664Y-15221485D01*
X8235664Y-15221485D02*
X8245187Y-15183390D01*
X8245187Y-15183390D02*
X8254711Y-15164342D01*
X8254711Y-15164342D02*
X8264235Y-15154818D01*
X8264235Y-15154818D02*
X8283283Y-15145294D01*
X8435664Y-15326247D02*
X8445188Y-15335771D01*
X8445188Y-15335771D02*
X8435664Y-15345294D01*
X8435664Y-15345294D02*
X8426140Y-15335771D01*
X8426140Y-15335771D02*
X8435664Y-15326247D01*
X8435664Y-15326247D02*
X8435664Y-15345294D01*
X8616616Y-15211961D02*
X8616616Y-15345294D01*
X8568997Y-15135771D02*
X8521378Y-15278628D01*
X8521378Y-15278628D02*
X8645188Y-15278628D01*
X8759473Y-15145294D02*
X8778521Y-15145294D01*
X8778521Y-15145294D02*
X8797569Y-15154818D01*
X8797569Y-15154818D02*
X8807092Y-15164342D01*
X8807092Y-15164342D02*
X8816616Y-15183390D01*
X8816616Y-15183390D02*
X8826140Y-15221485D01*
X8826140Y-15221485D02*
X8826140Y-15269104D01*
X8826140Y-15269104D02*
X8816616Y-15307199D01*
X8816616Y-15307199D02*
X8807092Y-15326247D01*
X8807092Y-15326247D02*
X8797569Y-15335771D01*
X8797569Y-15335771D02*
X8778521Y-15345294D01*
X8778521Y-15345294D02*
X8759473Y-15345294D01*
X8759473Y-15345294D02*
X8740426Y-15335771D01*
X8740426Y-15335771D02*
X8730902Y-15326247D01*
X8730902Y-15326247D02*
X8721378Y-15307199D01*
X8721378Y-15307199D02*
X8711854Y-15269104D01*
X8711854Y-15269104D02*
X8711854Y-15221485D01*
X8711854Y-15221485D02*
X8721378Y-15183390D01*
X8721378Y-15183390D02*
X8730902Y-15164342D01*
X8730902Y-15164342D02*
X8740426Y-15154818D01*
X8740426Y-15154818D02*
X8759473Y-15145294D01*
X8949949Y-15145294D02*
X8968997Y-15145294D01*
X8968997Y-15145294D02*
X8988045Y-15154818D01*
X8988045Y-15154818D02*
X8997569Y-15164342D01*
X8997569Y-15164342D02*
X9007092Y-15183390D01*
X9007092Y-15183390D02*
X9016616Y-15221485D01*
X9016616Y-15221485D02*
X9016616Y-15269104D01*
X9016616Y-15269104D02*
X9007092Y-15307199D01*
X9007092Y-15307199D02*
X8997569Y-15326247D01*
X8997569Y-15326247D02*
X8988045Y-15335771D01*
X8988045Y-15335771D02*
X8968997Y-15345294D01*
X8968997Y-15345294D02*
X8949949Y-15345294D01*
X8949949Y-15345294D02*
X8930902Y-15335771D01*
X8930902Y-15335771D02*
X8921378Y-15326247D01*
X8921378Y-15326247D02*
X8911854Y-15307199D01*
X8911854Y-15307199D02*
X8902330Y-15269104D01*
X8902330Y-15269104D02*
X8902330Y-15221485D01*
X8902330Y-15221485D02*
X8911854Y-15183390D01*
X8911854Y-15183390D02*
X8921378Y-15164342D01*
X8921378Y-15164342D02*
X8930902Y-15154818D01*
X8930902Y-15154818D02*
X8949949Y-15145294D01*
X9102330Y-15345294D02*
X9102330Y-15211961D01*
X9102330Y-15231009D02*
X9111854Y-15221485D01*
X9111854Y-15221485D02*
X9130902Y-15211961D01*
X9130902Y-15211961D02*
X9159473Y-15211961D01*
X9159473Y-15211961D02*
X9178521Y-15221485D01*
X9178521Y-15221485D02*
X9188045Y-15240533D01*
X9188045Y-15240533D02*
X9188045Y-15345294D01*
X9188045Y-15240533D02*
X9197569Y-15221485D01*
X9197569Y-15221485D02*
X9216616Y-15211961D01*
X9216616Y-15211961D02*
X9245188Y-15211961D01*
X9245188Y-15211961D02*
X9264235Y-15221485D01*
X9264235Y-15221485D02*
X9273759Y-15240533D01*
X9273759Y-15240533D02*
X9273759Y-15345294D01*
X9368997Y-15345294D02*
X9368997Y-15211961D01*
X9368997Y-15231009D02*
X9378521Y-15221485D01*
X9378521Y-15221485D02*
X9397569Y-15211961D01*
X9397569Y-15211961D02*
X9426140Y-15211961D01*
X9426140Y-15211961D02*
X9445188Y-15221485D01*
X9445188Y-15221485D02*
X9454711Y-15240533D01*
X9454711Y-15240533D02*
X9454711Y-15345294D01*
X9454711Y-15240533D02*
X9464235Y-15221485D01*
X9464235Y-15221485D02*
X9483283Y-15211961D01*
X9483283Y-15211961D02*
X9511854Y-15211961D01*
X9511854Y-15211961D02*
X9530902Y-15221485D01*
X9530902Y-15221485D02*
X9540426Y-15240533D01*
X9540426Y-15240533D02*
X9540426Y-15345294D01*
X9930902Y-15135771D02*
X9759473Y-15392913D01*
X10188045Y-15145294D02*
X10207093Y-15145294D01*
X10207093Y-15145294D02*
X10226140Y-15154818D01*
X10226140Y-15154818D02*
X10235664Y-15164342D01*
X10235664Y-15164342D02*
X10245188Y-15183390D01*
X10245188Y-15183390D02*
X10254712Y-15221485D01*
X10254712Y-15221485D02*
X10254712Y-15269104D01*
X10254712Y-15269104D02*
X10245188Y-15307199D01*
X10245188Y-15307199D02*
X10235664Y-15326247D01*
X10235664Y-15326247D02*
X10226140Y-15335771D01*
X10226140Y-15335771D02*
X10207093Y-15345294D01*
X10207093Y-15345294D02*
X10188045Y-15345294D01*
X10188045Y-15345294D02*
X10168997Y-15335771D01*
X10168997Y-15335771D02*
X10159473Y-15326247D01*
X10159473Y-15326247D02*
X10149950Y-15307199D01*
X10149950Y-15307199D02*
X10140426Y-15269104D01*
X10140426Y-15269104D02*
X10140426Y-15221485D01*
X10140426Y-15221485D02*
X10149950Y-15183390D01*
X10149950Y-15183390D02*
X10159473Y-15164342D01*
X10159473Y-15164342D02*
X10168997Y-15154818D01*
X10168997Y-15154818D02*
X10188045Y-15145294D01*
X10340426Y-15326247D02*
X10349950Y-15335771D01*
X10349950Y-15335771D02*
X10340426Y-15345294D01*
X10340426Y-15345294D02*
X10330902Y-15335771D01*
X10330902Y-15335771D02*
X10340426Y-15326247D01*
X10340426Y-15326247D02*
X10340426Y-15345294D01*
X10473759Y-15145294D02*
X10492807Y-15145294D01*
X10492807Y-15145294D02*
X10511854Y-15154818D01*
X10511854Y-15154818D02*
X10521378Y-15164342D01*
X10521378Y-15164342D02*
X10530902Y-15183390D01*
X10530902Y-15183390D02*
X10540426Y-15221485D01*
X10540426Y-15221485D02*
X10540426Y-15269104D01*
X10540426Y-15269104D02*
X10530902Y-15307199D01*
X10530902Y-15307199D02*
X10521378Y-15326247D01*
X10521378Y-15326247D02*
X10511854Y-15335771D01*
X10511854Y-15335771D02*
X10492807Y-15345294D01*
X10492807Y-15345294D02*
X10473759Y-15345294D01*
X10473759Y-15345294D02*
X10454712Y-15335771D01*
X10454712Y-15335771D02*
X10445188Y-15326247D01*
X10445188Y-15326247D02*
X10435664Y-15307199D01*
X10435664Y-15307199D02*
X10426140Y-15269104D01*
X10426140Y-15269104D02*
X10426140Y-15221485D01*
X10426140Y-15221485D02*
X10435664Y-15183390D01*
X10435664Y-15183390D02*
X10445188Y-15164342D01*
X10445188Y-15164342D02*
X10454712Y-15154818D01*
X10454712Y-15154818D02*
X10473759Y-15145294D01*
X10730902Y-15345294D02*
X10616616Y-15345294D01*
X10673759Y-15345294D02*
X10673759Y-15145294D01*
X10673759Y-15145294D02*
X10654712Y-15173866D01*
X10654712Y-15173866D02*
X10635664Y-15192913D01*
X10635664Y-15192913D02*
X10616616Y-15202437D01*
X10911854Y-15145294D02*
X10816616Y-15145294D01*
X10816616Y-15145294D02*
X10807093Y-15240533D01*
X10807093Y-15240533D02*
X10816616Y-15231009D01*
X10816616Y-15231009D02*
X10835664Y-15221485D01*
X10835664Y-15221485D02*
X10883283Y-15221485D01*
X10883283Y-15221485D02*
X10902331Y-15231009D01*
X10902331Y-15231009D02*
X10911854Y-15240533D01*
X10911854Y-15240533D02*
X10921378Y-15259580D01*
X10921378Y-15259580D02*
X10921378Y-15307199D01*
X10921378Y-15307199D02*
X10911854Y-15326247D01*
X10911854Y-15326247D02*
X10902331Y-15335771D01*
X10902331Y-15335771D02*
X10883283Y-15345294D01*
X10883283Y-15345294D02*
X10835664Y-15345294D01*
X10835664Y-15345294D02*
X10816616Y-15335771D01*
X10816616Y-15335771D02*
X10807093Y-15326247D01*
X10988045Y-15145294D02*
X11121378Y-15145294D01*
X11121378Y-15145294D02*
X11035664Y-15345294D01*
X11188045Y-15145294D02*
X11188045Y-15183390D01*
X11264235Y-15145294D02*
X11264235Y-15183390D01*
X11559474Y-15421485D02*
X11549950Y-15411961D01*
X11549950Y-15411961D02*
X11530902Y-15383390D01*
X11530902Y-15383390D02*
X11521378Y-15364342D01*
X11521378Y-15364342D02*
X11511854Y-15335771D01*
X11511854Y-15335771D02*
X11502331Y-15288152D01*
X11502331Y-15288152D02*
X11502331Y-15250056D01*
X11502331Y-15250056D02*
X11511854Y-15202437D01*
X11511854Y-15202437D02*
X11521378Y-15173866D01*
X11521378Y-15173866D02*
X11530902Y-15154818D01*
X11530902Y-15154818D02*
X11549950Y-15126247D01*
X11549950Y-15126247D02*
X11559474Y-15116723D01*
X11721378Y-15145294D02*
X11683283Y-15145294D01*
X11683283Y-15145294D02*
X11664235Y-15154818D01*
X11664235Y-15154818D02*
X11654712Y-15164342D01*
X11654712Y-15164342D02*
X11635664Y-15192913D01*
X11635664Y-15192913D02*
X11626140Y-15231009D01*
X11626140Y-15231009D02*
X11626140Y-15307199D01*
X11626140Y-15307199D02*
X11635664Y-15326247D01*
X11635664Y-15326247D02*
X11645188Y-15335771D01*
X11645188Y-15335771D02*
X11664235Y-15345294D01*
X11664235Y-15345294D02*
X11702331Y-15345294D01*
X11702331Y-15345294D02*
X11721378Y-15335771D01*
X11721378Y-15335771D02*
X11730902Y-15326247D01*
X11730902Y-15326247D02*
X11740426Y-15307199D01*
X11740426Y-15307199D02*
X11740426Y-15259580D01*
X11740426Y-15259580D02*
X11730902Y-15240533D01*
X11730902Y-15240533D02*
X11721378Y-15231009D01*
X11721378Y-15231009D02*
X11702331Y-15221485D01*
X11702331Y-15221485D02*
X11664235Y-15221485D01*
X11664235Y-15221485D02*
X11645188Y-15231009D01*
X11645188Y-15231009D02*
X11635664Y-15240533D01*
X11635664Y-15240533D02*
X11626140Y-15259580D01*
X11930902Y-15345294D02*
X11816616Y-15345294D01*
X11873759Y-15345294D02*
X11873759Y-15145294D01*
X11873759Y-15145294D02*
X11854712Y-15173866D01*
X11854712Y-15173866D02*
X11835664Y-15192913D01*
X11835664Y-15192913D02*
X11816616Y-15202437D01*
X12168997Y-15345294D02*
X12168997Y-15145294D01*
X12254712Y-15345294D02*
X12254712Y-15240533D01*
X12254712Y-15240533D02*
X12245188Y-15221485D01*
X12245188Y-15221485D02*
X12226140Y-15211961D01*
X12226140Y-15211961D02*
X12197569Y-15211961D01*
X12197569Y-15211961D02*
X12178521Y-15221485D01*
X12178521Y-15221485D02*
X12168997Y-15231009D01*
X12378521Y-15345294D02*
X12359474Y-15335771D01*
X12359474Y-15335771D02*
X12349950Y-15326247D01*
X12349950Y-15326247D02*
X12340426Y-15307199D01*
X12340426Y-15307199D02*
X12340426Y-15250056D01*
X12340426Y-15250056D02*
X12349950Y-15231009D01*
X12349950Y-15231009D02*
X12359474Y-15221485D01*
X12359474Y-15221485D02*
X12378521Y-15211961D01*
X12378521Y-15211961D02*
X12407093Y-15211961D01*
X12407093Y-15211961D02*
X12426140Y-15221485D01*
X12426140Y-15221485D02*
X12435664Y-15231009D01*
X12435664Y-15231009D02*
X12445188Y-15250056D01*
X12445188Y-15250056D02*
X12445188Y-15307199D01*
X12445188Y-15307199D02*
X12435664Y-15326247D01*
X12435664Y-15326247D02*
X12426140Y-15335771D01*
X12426140Y-15335771D02*
X12407093Y-15345294D01*
X12407093Y-15345294D02*
X12378521Y-15345294D01*
X12559474Y-15345294D02*
X12540426Y-15335771D01*
X12540426Y-15335771D02*
X12530902Y-15316723D01*
X12530902Y-15316723D02*
X12530902Y-15145294D01*
X12711855Y-15335771D02*
X12692807Y-15345294D01*
X12692807Y-15345294D02*
X12654712Y-15345294D01*
X12654712Y-15345294D02*
X12635664Y-15335771D01*
X12635664Y-15335771D02*
X12626140Y-15316723D01*
X12626140Y-15316723D02*
X12626140Y-15240533D01*
X12626140Y-15240533D02*
X12635664Y-15221485D01*
X12635664Y-15221485D02*
X12654712Y-15211961D01*
X12654712Y-15211961D02*
X12692807Y-15211961D01*
X12692807Y-15211961D02*
X12711855Y-15221485D01*
X12711855Y-15221485D02*
X12721378Y-15240533D01*
X12721378Y-15240533D02*
X12721378Y-15259580D01*
X12721378Y-15259580D02*
X12626140Y-15278628D01*
X12797569Y-15335771D02*
X12816616Y-15345294D01*
X12816616Y-15345294D02*
X12854712Y-15345294D01*
X12854712Y-15345294D02*
X12873759Y-15335771D01*
X12873759Y-15335771D02*
X12883283Y-15316723D01*
X12883283Y-15316723D02*
X12883283Y-15307199D01*
X12883283Y-15307199D02*
X12873759Y-15288152D01*
X12873759Y-15288152D02*
X12854712Y-15278628D01*
X12854712Y-15278628D02*
X12826140Y-15278628D01*
X12826140Y-15278628D02*
X12807093Y-15269104D01*
X12807093Y-15269104D02*
X12797569Y-15250056D01*
X12797569Y-15250056D02*
X12797569Y-15240533D01*
X12797569Y-15240533D02*
X12807093Y-15221485D01*
X12807093Y-15221485D02*
X12826140Y-15211961D01*
X12826140Y-15211961D02*
X12854712Y-15211961D01*
X12854712Y-15211961D02*
X12873759Y-15221485D01*
X12949950Y-15421485D02*
X12959474Y-15411961D01*
X12959474Y-15411961D02*
X12978521Y-15383390D01*
X12978521Y-15383390D02*
X12988045Y-15364342D01*
X12988045Y-15364342D02*
X12997569Y-15335771D01*
X12997569Y-15335771D02*
X13007093Y-15288152D01*
X13007093Y-15288152D02*
X13007093Y-15250056D01*
X13007093Y-15250056D02*
X12997569Y-15202437D01*
X12997569Y-15202437D02*
X12988045Y-15173866D01*
X12988045Y-15173866D02*
X12978521Y-15154818D01*
X12978521Y-15154818D02*
X12959474Y-15126247D01*
X12959474Y-15126247D02*
X12949950Y-15116723D01*
D12*
X7984411Y-15517811D02*
G75*
G02*
X7923451Y-15517811I-30480J0D01*
G01*
X7923451Y-15517811D02*
G75*
G02*
X7984411Y-15517811I30480J0D01*
G01*
D11*
X8283283Y-15409294D02*
X8302330Y-15409294D01*
X8302330Y-15409294D02*
X8321378Y-15418818D01*
X8321378Y-15418818D02*
X8330902Y-15428342D01*
X8330902Y-15428342D02*
X8340426Y-15447390D01*
X8340426Y-15447390D02*
X8349949Y-15485485D01*
X8349949Y-15485485D02*
X8349949Y-15533104D01*
X8349949Y-15533104D02*
X8340426Y-15571199D01*
X8340426Y-15571199D02*
X8330902Y-15590247D01*
X8330902Y-15590247D02*
X8321378Y-15599771D01*
X8321378Y-15599771D02*
X8302330Y-15609294D01*
X8302330Y-15609294D02*
X8283283Y-15609294D01*
X8283283Y-15609294D02*
X8264235Y-15599771D01*
X8264235Y-15599771D02*
X8254711Y-15590247D01*
X8254711Y-15590247D02*
X8245187Y-15571199D01*
X8245187Y-15571199D02*
X8235664Y-15533104D01*
X8235664Y-15533104D02*
X8235664Y-15485485D01*
X8235664Y-15485485D02*
X8245187Y-15447390D01*
X8245187Y-15447390D02*
X8254711Y-15428342D01*
X8254711Y-15428342D02*
X8264235Y-15418818D01*
X8264235Y-15418818D02*
X8283283Y-15409294D01*
X8435664Y-15590247D02*
X8445188Y-15599771D01*
X8445188Y-15599771D02*
X8435664Y-15609294D01*
X8435664Y-15609294D02*
X8426140Y-15599771D01*
X8426140Y-15599771D02*
X8435664Y-15590247D01*
X8435664Y-15590247D02*
X8435664Y-15609294D01*
X8616616Y-15409294D02*
X8578521Y-15409294D01*
X8578521Y-15409294D02*
X8559473Y-15418818D01*
X8559473Y-15418818D02*
X8549949Y-15428342D01*
X8549949Y-15428342D02*
X8530902Y-15456913D01*
X8530902Y-15456913D02*
X8521378Y-15495009D01*
X8521378Y-15495009D02*
X8521378Y-15571199D01*
X8521378Y-15571199D02*
X8530902Y-15590247D01*
X8530902Y-15590247D02*
X8540426Y-15599771D01*
X8540426Y-15599771D02*
X8559473Y-15609294D01*
X8559473Y-15609294D02*
X8597569Y-15609294D01*
X8597569Y-15609294D02*
X8616616Y-15599771D01*
X8616616Y-15599771D02*
X8626140Y-15590247D01*
X8626140Y-15590247D02*
X8635664Y-15571199D01*
X8635664Y-15571199D02*
X8635664Y-15523580D01*
X8635664Y-15523580D02*
X8626140Y-15504533D01*
X8626140Y-15504533D02*
X8616616Y-15495009D01*
X8616616Y-15495009D02*
X8597569Y-15485485D01*
X8597569Y-15485485D02*
X8559473Y-15485485D01*
X8559473Y-15485485D02*
X8540426Y-15495009D01*
X8540426Y-15495009D02*
X8530902Y-15504533D01*
X8530902Y-15504533D02*
X8521378Y-15523580D01*
X8826140Y-15609294D02*
X8711854Y-15609294D01*
X8768997Y-15609294D02*
X8768997Y-15409294D01*
X8768997Y-15409294D02*
X8749949Y-15437866D01*
X8749949Y-15437866D02*
X8730902Y-15456913D01*
X8730902Y-15456913D02*
X8711854Y-15466437D01*
X8949949Y-15409294D02*
X8968997Y-15409294D01*
X8968997Y-15409294D02*
X8988045Y-15418818D01*
X8988045Y-15418818D02*
X8997569Y-15428342D01*
X8997569Y-15428342D02*
X9007092Y-15447390D01*
X9007092Y-15447390D02*
X9016616Y-15485485D01*
X9016616Y-15485485D02*
X9016616Y-15533104D01*
X9016616Y-15533104D02*
X9007092Y-15571199D01*
X9007092Y-15571199D02*
X8997569Y-15590247D01*
X8997569Y-15590247D02*
X8988045Y-15599771D01*
X8988045Y-15599771D02*
X8968997Y-15609294D01*
X8968997Y-15609294D02*
X8949949Y-15609294D01*
X8949949Y-15609294D02*
X8930902Y-15599771D01*
X8930902Y-15599771D02*
X8921378Y-15590247D01*
X8921378Y-15590247D02*
X8911854Y-15571199D01*
X8911854Y-15571199D02*
X8902330Y-15533104D01*
X8902330Y-15533104D02*
X8902330Y-15485485D01*
X8902330Y-15485485D02*
X8911854Y-15447390D01*
X8911854Y-15447390D02*
X8921378Y-15428342D01*
X8921378Y-15428342D02*
X8930902Y-15418818D01*
X8930902Y-15418818D02*
X8949949Y-15409294D01*
X9102330Y-15609294D02*
X9102330Y-15475961D01*
X9102330Y-15495009D02*
X9111854Y-15485485D01*
X9111854Y-15485485D02*
X9130902Y-15475961D01*
X9130902Y-15475961D02*
X9159473Y-15475961D01*
X9159473Y-15475961D02*
X9178521Y-15485485D01*
X9178521Y-15485485D02*
X9188045Y-15504533D01*
X9188045Y-15504533D02*
X9188045Y-15609294D01*
X9188045Y-15504533D02*
X9197569Y-15485485D01*
X9197569Y-15485485D02*
X9216616Y-15475961D01*
X9216616Y-15475961D02*
X9245188Y-15475961D01*
X9245188Y-15475961D02*
X9264235Y-15485485D01*
X9264235Y-15485485D02*
X9273759Y-15504533D01*
X9273759Y-15504533D02*
X9273759Y-15609294D01*
X9368997Y-15609294D02*
X9368997Y-15475961D01*
X9368997Y-15495009D02*
X9378521Y-15485485D01*
X9378521Y-15485485D02*
X9397569Y-15475961D01*
X9397569Y-15475961D02*
X9426140Y-15475961D01*
X9426140Y-15475961D02*
X9445188Y-15485485D01*
X9445188Y-15485485D02*
X9454711Y-15504533D01*
X9454711Y-15504533D02*
X9454711Y-15609294D01*
X9454711Y-15504533D02*
X9464235Y-15485485D01*
X9464235Y-15485485D02*
X9483283Y-15475961D01*
X9483283Y-15475961D02*
X9511854Y-15475961D01*
X9511854Y-15475961D02*
X9530902Y-15485485D01*
X9530902Y-15485485D02*
X9540426Y-15504533D01*
X9540426Y-15504533D02*
X9540426Y-15609294D01*
X9930902Y-15399771D02*
X9759473Y-15656913D01*
X10188045Y-15409294D02*
X10207093Y-15409294D01*
X10207093Y-15409294D02*
X10226140Y-15418818D01*
X10226140Y-15418818D02*
X10235664Y-15428342D01*
X10235664Y-15428342D02*
X10245188Y-15447390D01*
X10245188Y-15447390D02*
X10254712Y-15485485D01*
X10254712Y-15485485D02*
X10254712Y-15533104D01*
X10254712Y-15533104D02*
X10245188Y-15571199D01*
X10245188Y-15571199D02*
X10235664Y-15590247D01*
X10235664Y-15590247D02*
X10226140Y-15599771D01*
X10226140Y-15599771D02*
X10207093Y-15609294D01*
X10207093Y-15609294D02*
X10188045Y-15609294D01*
X10188045Y-15609294D02*
X10168997Y-15599771D01*
X10168997Y-15599771D02*
X10159473Y-15590247D01*
X10159473Y-15590247D02*
X10149950Y-15571199D01*
X10149950Y-15571199D02*
X10140426Y-15533104D01*
X10140426Y-15533104D02*
X10140426Y-15485485D01*
X10140426Y-15485485D02*
X10149950Y-15447390D01*
X10149950Y-15447390D02*
X10159473Y-15428342D01*
X10159473Y-15428342D02*
X10168997Y-15418818D01*
X10168997Y-15418818D02*
X10188045Y-15409294D01*
X10340426Y-15590247D02*
X10349950Y-15599771D01*
X10349950Y-15599771D02*
X10340426Y-15609294D01*
X10340426Y-15609294D02*
X10330902Y-15599771D01*
X10330902Y-15599771D02*
X10340426Y-15590247D01*
X10340426Y-15590247D02*
X10340426Y-15609294D01*
X10473759Y-15409294D02*
X10492807Y-15409294D01*
X10492807Y-15409294D02*
X10511854Y-15418818D01*
X10511854Y-15418818D02*
X10521378Y-15428342D01*
X10521378Y-15428342D02*
X10530902Y-15447390D01*
X10530902Y-15447390D02*
X10540426Y-15485485D01*
X10540426Y-15485485D02*
X10540426Y-15533104D01*
X10540426Y-15533104D02*
X10530902Y-15571199D01*
X10530902Y-15571199D02*
X10521378Y-15590247D01*
X10521378Y-15590247D02*
X10511854Y-15599771D01*
X10511854Y-15599771D02*
X10492807Y-15609294D01*
X10492807Y-15609294D02*
X10473759Y-15609294D01*
X10473759Y-15609294D02*
X10454712Y-15599771D01*
X10454712Y-15599771D02*
X10445188Y-15590247D01*
X10445188Y-15590247D02*
X10435664Y-15571199D01*
X10435664Y-15571199D02*
X10426140Y-15533104D01*
X10426140Y-15533104D02*
X10426140Y-15485485D01*
X10426140Y-15485485D02*
X10435664Y-15447390D01*
X10435664Y-15447390D02*
X10445188Y-15428342D01*
X10445188Y-15428342D02*
X10454712Y-15418818D01*
X10454712Y-15418818D02*
X10473759Y-15409294D01*
X10616616Y-15428342D02*
X10626140Y-15418818D01*
X10626140Y-15418818D02*
X10645188Y-15409294D01*
X10645188Y-15409294D02*
X10692807Y-15409294D01*
X10692807Y-15409294D02*
X10711854Y-15418818D01*
X10711854Y-15418818D02*
X10721378Y-15428342D01*
X10721378Y-15428342D02*
X10730902Y-15447390D01*
X10730902Y-15447390D02*
X10730902Y-15466437D01*
X10730902Y-15466437D02*
X10721378Y-15495009D01*
X10721378Y-15495009D02*
X10607093Y-15609294D01*
X10607093Y-15609294D02*
X10730902Y-15609294D01*
X10902331Y-15475961D02*
X10902331Y-15609294D01*
X10854712Y-15399771D02*
X10807093Y-15542628D01*
X10807093Y-15542628D02*
X10930902Y-15542628D01*
X11045188Y-15409294D02*
X11064235Y-15409294D01*
X11064235Y-15409294D02*
X11083283Y-15418818D01*
X11083283Y-15418818D02*
X11092807Y-15428342D01*
X11092807Y-15428342D02*
X11102331Y-15447390D01*
X11102331Y-15447390D02*
X11111854Y-15485485D01*
X11111854Y-15485485D02*
X11111854Y-15533104D01*
X11111854Y-15533104D02*
X11102331Y-15571199D01*
X11102331Y-15571199D02*
X11092807Y-15590247D01*
X11092807Y-15590247D02*
X11083283Y-15599771D01*
X11083283Y-15599771D02*
X11064235Y-15609294D01*
X11064235Y-15609294D02*
X11045188Y-15609294D01*
X11045188Y-15609294D02*
X11026140Y-15599771D01*
X11026140Y-15599771D02*
X11016616Y-15590247D01*
X11016616Y-15590247D02*
X11007093Y-15571199D01*
X11007093Y-15571199D02*
X10997569Y-15533104D01*
X10997569Y-15533104D02*
X10997569Y-15485485D01*
X10997569Y-15485485D02*
X11007093Y-15447390D01*
X11007093Y-15447390D02*
X11016616Y-15428342D01*
X11016616Y-15428342D02*
X11026140Y-15418818D01*
X11026140Y-15418818D02*
X11045188Y-15409294D01*
X11188045Y-15409294D02*
X11188045Y-15447390D01*
X11264235Y-15409294D02*
X11264235Y-15447390D01*
X11559474Y-15685485D02*
X11549950Y-15675961D01*
X11549950Y-15675961D02*
X11530902Y-15647390D01*
X11530902Y-15647390D02*
X11521378Y-15628342D01*
X11521378Y-15628342D02*
X11511854Y-15599771D01*
X11511854Y-15599771D02*
X11502331Y-15552152D01*
X11502331Y-15552152D02*
X11502331Y-15514056D01*
X11502331Y-15514056D02*
X11511854Y-15466437D01*
X11511854Y-15466437D02*
X11521378Y-15437866D01*
X11521378Y-15437866D02*
X11530902Y-15418818D01*
X11530902Y-15418818D02*
X11549950Y-15390247D01*
X11549950Y-15390247D02*
X11559474Y-15380723D01*
X11626140Y-15428342D02*
X11635664Y-15418818D01*
X11635664Y-15418818D02*
X11654712Y-15409294D01*
X11654712Y-15409294D02*
X11702331Y-15409294D01*
X11702331Y-15409294D02*
X11721378Y-15418818D01*
X11721378Y-15418818D02*
X11730902Y-15428342D01*
X11730902Y-15428342D02*
X11740426Y-15447390D01*
X11740426Y-15447390D02*
X11740426Y-15466437D01*
X11740426Y-15466437D02*
X11730902Y-15495009D01*
X11730902Y-15495009D02*
X11616616Y-15609294D01*
X11616616Y-15609294D02*
X11740426Y-15609294D01*
X11816616Y-15428342D02*
X11826140Y-15418818D01*
X11826140Y-15418818D02*
X11845188Y-15409294D01*
X11845188Y-15409294D02*
X11892807Y-15409294D01*
X11892807Y-15409294D02*
X11911854Y-15418818D01*
X11911854Y-15418818D02*
X11921378Y-15428342D01*
X11921378Y-15428342D02*
X11930902Y-15447390D01*
X11930902Y-15447390D02*
X11930902Y-15466437D01*
X11930902Y-15466437D02*
X11921378Y-15495009D01*
X11921378Y-15495009D02*
X11807093Y-15609294D01*
X11807093Y-15609294D02*
X11930902Y-15609294D01*
X12168997Y-15609294D02*
X12168997Y-15409294D01*
X12254712Y-15609294D02*
X12254712Y-15504533D01*
X12254712Y-15504533D02*
X12245188Y-15485485D01*
X12245188Y-15485485D02*
X12226140Y-15475961D01*
X12226140Y-15475961D02*
X12197569Y-15475961D01*
X12197569Y-15475961D02*
X12178521Y-15485485D01*
X12178521Y-15485485D02*
X12168997Y-15495009D01*
X12378521Y-15609294D02*
X12359474Y-15599771D01*
X12359474Y-15599771D02*
X12349950Y-15590247D01*
X12349950Y-15590247D02*
X12340426Y-15571199D01*
X12340426Y-15571199D02*
X12340426Y-15514056D01*
X12340426Y-15514056D02*
X12349950Y-15495009D01*
X12349950Y-15495009D02*
X12359474Y-15485485D01*
X12359474Y-15485485D02*
X12378521Y-15475961D01*
X12378521Y-15475961D02*
X12407093Y-15475961D01*
X12407093Y-15475961D02*
X12426140Y-15485485D01*
X12426140Y-15485485D02*
X12435664Y-15495009D01*
X12435664Y-15495009D02*
X12445188Y-15514056D01*
X12445188Y-15514056D02*
X12445188Y-15571199D01*
X12445188Y-15571199D02*
X12435664Y-15590247D01*
X12435664Y-15590247D02*
X12426140Y-15599771D01*
X12426140Y-15599771D02*
X12407093Y-15609294D01*
X12407093Y-15609294D02*
X12378521Y-15609294D01*
X12559474Y-15609294D02*
X12540426Y-15599771D01*
X12540426Y-15599771D02*
X12530902Y-15580723D01*
X12530902Y-15580723D02*
X12530902Y-15409294D01*
X12711855Y-15599771D02*
X12692807Y-15609294D01*
X12692807Y-15609294D02*
X12654712Y-15609294D01*
X12654712Y-15609294D02*
X12635664Y-15599771D01*
X12635664Y-15599771D02*
X12626140Y-15580723D01*
X12626140Y-15580723D02*
X12626140Y-15504533D01*
X12626140Y-15504533D02*
X12635664Y-15485485D01*
X12635664Y-15485485D02*
X12654712Y-15475961D01*
X12654712Y-15475961D02*
X12692807Y-15475961D01*
X12692807Y-15475961D02*
X12711855Y-15485485D01*
X12711855Y-15485485D02*
X12721378Y-15504533D01*
X12721378Y-15504533D02*
X12721378Y-15523580D01*
X12721378Y-15523580D02*
X12626140Y-15542628D01*
X12797569Y-15599771D02*
X12816616Y-15609294D01*
X12816616Y-15609294D02*
X12854712Y-15609294D01*
X12854712Y-15609294D02*
X12873759Y-15599771D01*
X12873759Y-15599771D02*
X12883283Y-15580723D01*
X12883283Y-15580723D02*
X12883283Y-15571199D01*
X12883283Y-15571199D02*
X12873759Y-15552152D01*
X12873759Y-15552152D02*
X12854712Y-15542628D01*
X12854712Y-15542628D02*
X12826140Y-15542628D01*
X12826140Y-15542628D02*
X12807093Y-15533104D01*
X12807093Y-15533104D02*
X12797569Y-15514056D01*
X12797569Y-15514056D02*
X12797569Y-15504533D01*
X12797569Y-15504533D02*
X12807093Y-15485485D01*
X12807093Y-15485485D02*
X12826140Y-15475961D01*
X12826140Y-15475961D02*
X12854712Y-15475961D01*
X12854712Y-15475961D02*
X12873759Y-15485485D01*
X12949950Y-15685485D02*
X12959474Y-15675961D01*
X12959474Y-15675961D02*
X12978521Y-15647390D01*
X12978521Y-15647390D02*
X12988045Y-15628342D01*
X12988045Y-15628342D02*
X12997569Y-15599771D01*
X12997569Y-15599771D02*
X13007093Y-15552152D01*
X13007093Y-15552152D02*
X13007093Y-15514056D01*
X13007093Y-15514056D02*
X12997569Y-15466437D01*
X12997569Y-15466437D02*
X12988045Y-15437866D01*
X12988045Y-15437866D02*
X12978521Y-15418818D01*
X12978521Y-15418818D02*
X12959474Y-15390247D01*
X12959474Y-15390247D02*
X12949950Y-15380723D01*
D12*
X7944411Y-15741811D02*
X7944411Y-15821811D01*
X7904411Y-15781811D02*
X7984411Y-15781811D01*
D11*
X8283283Y-15673294D02*
X8302330Y-15673294D01*
X8302330Y-15673294D02*
X8321378Y-15682818D01*
X8321378Y-15682818D02*
X8330902Y-15692342D01*
X8330902Y-15692342D02*
X8340426Y-15711390D01*
X8340426Y-15711390D02*
X8349949Y-15749485D01*
X8349949Y-15749485D02*
X8349949Y-15797104D01*
X8349949Y-15797104D02*
X8340426Y-15835199D01*
X8340426Y-15835199D02*
X8330902Y-15854247D01*
X8330902Y-15854247D02*
X8321378Y-15863771D01*
X8321378Y-15863771D02*
X8302330Y-15873294D01*
X8302330Y-15873294D02*
X8283283Y-15873294D01*
X8283283Y-15873294D02*
X8264235Y-15863771D01*
X8264235Y-15863771D02*
X8254711Y-15854247D01*
X8254711Y-15854247D02*
X8245187Y-15835199D01*
X8245187Y-15835199D02*
X8235664Y-15797104D01*
X8235664Y-15797104D02*
X8235664Y-15749485D01*
X8235664Y-15749485D02*
X8245187Y-15711390D01*
X8245187Y-15711390D02*
X8254711Y-15692342D01*
X8254711Y-15692342D02*
X8264235Y-15682818D01*
X8264235Y-15682818D02*
X8283283Y-15673294D01*
X8435664Y-15854247D02*
X8445188Y-15863771D01*
X8445188Y-15863771D02*
X8435664Y-15873294D01*
X8435664Y-15873294D02*
X8426140Y-15863771D01*
X8426140Y-15863771D02*
X8435664Y-15854247D01*
X8435664Y-15854247D02*
X8435664Y-15873294D01*
X8559473Y-15759009D02*
X8540426Y-15749485D01*
X8540426Y-15749485D02*
X8530902Y-15739961D01*
X8530902Y-15739961D02*
X8521378Y-15720913D01*
X8521378Y-15720913D02*
X8521378Y-15711390D01*
X8521378Y-15711390D02*
X8530902Y-15692342D01*
X8530902Y-15692342D02*
X8540426Y-15682818D01*
X8540426Y-15682818D02*
X8559473Y-15673294D01*
X8559473Y-15673294D02*
X8597569Y-15673294D01*
X8597569Y-15673294D02*
X8616616Y-15682818D01*
X8616616Y-15682818D02*
X8626140Y-15692342D01*
X8626140Y-15692342D02*
X8635664Y-15711390D01*
X8635664Y-15711390D02*
X8635664Y-15720913D01*
X8635664Y-15720913D02*
X8626140Y-15739961D01*
X8626140Y-15739961D02*
X8616616Y-15749485D01*
X8616616Y-15749485D02*
X8597569Y-15759009D01*
X8597569Y-15759009D02*
X8559473Y-15759009D01*
X8559473Y-15759009D02*
X8540426Y-15768533D01*
X8540426Y-15768533D02*
X8530902Y-15778056D01*
X8530902Y-15778056D02*
X8521378Y-15797104D01*
X8521378Y-15797104D02*
X8521378Y-15835199D01*
X8521378Y-15835199D02*
X8530902Y-15854247D01*
X8530902Y-15854247D02*
X8540426Y-15863771D01*
X8540426Y-15863771D02*
X8559473Y-15873294D01*
X8559473Y-15873294D02*
X8597569Y-15873294D01*
X8597569Y-15873294D02*
X8616616Y-15863771D01*
X8616616Y-15863771D02*
X8626140Y-15854247D01*
X8626140Y-15854247D02*
X8635664Y-15835199D01*
X8635664Y-15835199D02*
X8635664Y-15797104D01*
X8635664Y-15797104D02*
X8626140Y-15778056D01*
X8626140Y-15778056D02*
X8616616Y-15768533D01*
X8616616Y-15768533D02*
X8597569Y-15759009D01*
X8759473Y-15673294D02*
X8778521Y-15673294D01*
X8778521Y-15673294D02*
X8797569Y-15682818D01*
X8797569Y-15682818D02*
X8807092Y-15692342D01*
X8807092Y-15692342D02*
X8816616Y-15711390D01*
X8816616Y-15711390D02*
X8826140Y-15749485D01*
X8826140Y-15749485D02*
X8826140Y-15797104D01*
X8826140Y-15797104D02*
X8816616Y-15835199D01*
X8816616Y-15835199D02*
X8807092Y-15854247D01*
X8807092Y-15854247D02*
X8797569Y-15863771D01*
X8797569Y-15863771D02*
X8778521Y-15873294D01*
X8778521Y-15873294D02*
X8759473Y-15873294D01*
X8759473Y-15873294D02*
X8740426Y-15863771D01*
X8740426Y-15863771D02*
X8730902Y-15854247D01*
X8730902Y-15854247D02*
X8721378Y-15835199D01*
X8721378Y-15835199D02*
X8711854Y-15797104D01*
X8711854Y-15797104D02*
X8711854Y-15749485D01*
X8711854Y-15749485D02*
X8721378Y-15711390D01*
X8721378Y-15711390D02*
X8730902Y-15692342D01*
X8730902Y-15692342D02*
X8740426Y-15682818D01*
X8740426Y-15682818D02*
X8759473Y-15673294D01*
X8949949Y-15673294D02*
X8968997Y-15673294D01*
X8968997Y-15673294D02*
X8988045Y-15682818D01*
X8988045Y-15682818D02*
X8997569Y-15692342D01*
X8997569Y-15692342D02*
X9007092Y-15711390D01*
X9007092Y-15711390D02*
X9016616Y-15749485D01*
X9016616Y-15749485D02*
X9016616Y-15797104D01*
X9016616Y-15797104D02*
X9007092Y-15835199D01*
X9007092Y-15835199D02*
X8997569Y-15854247D01*
X8997569Y-15854247D02*
X8988045Y-15863771D01*
X8988045Y-15863771D02*
X8968997Y-15873294D01*
X8968997Y-15873294D02*
X8949949Y-15873294D01*
X8949949Y-15873294D02*
X8930902Y-15863771D01*
X8930902Y-15863771D02*
X8921378Y-15854247D01*
X8921378Y-15854247D02*
X8911854Y-15835199D01*
X8911854Y-15835199D02*
X8902330Y-15797104D01*
X8902330Y-15797104D02*
X8902330Y-15749485D01*
X8902330Y-15749485D02*
X8911854Y-15711390D01*
X8911854Y-15711390D02*
X8921378Y-15692342D01*
X8921378Y-15692342D02*
X8930902Y-15682818D01*
X8930902Y-15682818D02*
X8949949Y-15673294D01*
X9102330Y-15873294D02*
X9102330Y-15739961D01*
X9102330Y-15759009D02*
X9111854Y-15749485D01*
X9111854Y-15749485D02*
X9130902Y-15739961D01*
X9130902Y-15739961D02*
X9159473Y-15739961D01*
X9159473Y-15739961D02*
X9178521Y-15749485D01*
X9178521Y-15749485D02*
X9188045Y-15768533D01*
X9188045Y-15768533D02*
X9188045Y-15873294D01*
X9188045Y-15768533D02*
X9197569Y-15749485D01*
X9197569Y-15749485D02*
X9216616Y-15739961D01*
X9216616Y-15739961D02*
X9245188Y-15739961D01*
X9245188Y-15739961D02*
X9264235Y-15749485D01*
X9264235Y-15749485D02*
X9273759Y-15768533D01*
X9273759Y-15768533D02*
X9273759Y-15873294D01*
X9368997Y-15873294D02*
X9368997Y-15739961D01*
X9368997Y-15759009D02*
X9378521Y-15749485D01*
X9378521Y-15749485D02*
X9397569Y-15739961D01*
X9397569Y-15739961D02*
X9426140Y-15739961D01*
X9426140Y-15739961D02*
X9445188Y-15749485D01*
X9445188Y-15749485D02*
X9454711Y-15768533D01*
X9454711Y-15768533D02*
X9454711Y-15873294D01*
X9454711Y-15768533D02*
X9464235Y-15749485D01*
X9464235Y-15749485D02*
X9483283Y-15739961D01*
X9483283Y-15739961D02*
X9511854Y-15739961D01*
X9511854Y-15739961D02*
X9530902Y-15749485D01*
X9530902Y-15749485D02*
X9540426Y-15768533D01*
X9540426Y-15768533D02*
X9540426Y-15873294D01*
X9930902Y-15663771D02*
X9759473Y-15920913D01*
X10188045Y-15673294D02*
X10207093Y-15673294D01*
X10207093Y-15673294D02*
X10226140Y-15682818D01*
X10226140Y-15682818D02*
X10235664Y-15692342D01*
X10235664Y-15692342D02*
X10245188Y-15711390D01*
X10245188Y-15711390D02*
X10254712Y-15749485D01*
X10254712Y-15749485D02*
X10254712Y-15797104D01*
X10254712Y-15797104D02*
X10245188Y-15835199D01*
X10245188Y-15835199D02*
X10235664Y-15854247D01*
X10235664Y-15854247D02*
X10226140Y-15863771D01*
X10226140Y-15863771D02*
X10207093Y-15873294D01*
X10207093Y-15873294D02*
X10188045Y-15873294D01*
X10188045Y-15873294D02*
X10168997Y-15863771D01*
X10168997Y-15863771D02*
X10159473Y-15854247D01*
X10159473Y-15854247D02*
X10149950Y-15835199D01*
X10149950Y-15835199D02*
X10140426Y-15797104D01*
X10140426Y-15797104D02*
X10140426Y-15749485D01*
X10140426Y-15749485D02*
X10149950Y-15711390D01*
X10149950Y-15711390D02*
X10159473Y-15692342D01*
X10159473Y-15692342D02*
X10168997Y-15682818D01*
X10168997Y-15682818D02*
X10188045Y-15673294D01*
X10340426Y-15854247D02*
X10349950Y-15863771D01*
X10349950Y-15863771D02*
X10340426Y-15873294D01*
X10340426Y-15873294D02*
X10330902Y-15863771D01*
X10330902Y-15863771D02*
X10340426Y-15854247D01*
X10340426Y-15854247D02*
X10340426Y-15873294D01*
X10473759Y-15673294D02*
X10492807Y-15673294D01*
X10492807Y-15673294D02*
X10511854Y-15682818D01*
X10511854Y-15682818D02*
X10521378Y-15692342D01*
X10521378Y-15692342D02*
X10530902Y-15711390D01*
X10530902Y-15711390D02*
X10540426Y-15749485D01*
X10540426Y-15749485D02*
X10540426Y-15797104D01*
X10540426Y-15797104D02*
X10530902Y-15835199D01*
X10530902Y-15835199D02*
X10521378Y-15854247D01*
X10521378Y-15854247D02*
X10511854Y-15863771D01*
X10511854Y-15863771D02*
X10492807Y-15873294D01*
X10492807Y-15873294D02*
X10473759Y-15873294D01*
X10473759Y-15873294D02*
X10454712Y-15863771D01*
X10454712Y-15863771D02*
X10445188Y-15854247D01*
X10445188Y-15854247D02*
X10435664Y-15835199D01*
X10435664Y-15835199D02*
X10426140Y-15797104D01*
X10426140Y-15797104D02*
X10426140Y-15749485D01*
X10426140Y-15749485D02*
X10435664Y-15711390D01*
X10435664Y-15711390D02*
X10445188Y-15692342D01*
X10445188Y-15692342D02*
X10454712Y-15682818D01*
X10454712Y-15682818D02*
X10473759Y-15673294D01*
X10607093Y-15673294D02*
X10730902Y-15673294D01*
X10730902Y-15673294D02*
X10664235Y-15749485D01*
X10664235Y-15749485D02*
X10692807Y-15749485D01*
X10692807Y-15749485D02*
X10711854Y-15759009D01*
X10711854Y-15759009D02*
X10721378Y-15768533D01*
X10721378Y-15768533D02*
X10730902Y-15787580D01*
X10730902Y-15787580D02*
X10730902Y-15835199D01*
X10730902Y-15835199D02*
X10721378Y-15854247D01*
X10721378Y-15854247D02*
X10711854Y-15863771D01*
X10711854Y-15863771D02*
X10692807Y-15873294D01*
X10692807Y-15873294D02*
X10635664Y-15873294D01*
X10635664Y-15873294D02*
X10616616Y-15863771D01*
X10616616Y-15863771D02*
X10607093Y-15854247D01*
X10921378Y-15873294D02*
X10807093Y-15873294D01*
X10864235Y-15873294D02*
X10864235Y-15673294D01*
X10864235Y-15673294D02*
X10845188Y-15701866D01*
X10845188Y-15701866D02*
X10826140Y-15720913D01*
X10826140Y-15720913D02*
X10807093Y-15730437D01*
X11102331Y-15673294D02*
X11007093Y-15673294D01*
X11007093Y-15673294D02*
X10997569Y-15768533D01*
X10997569Y-15768533D02*
X11007093Y-15759009D01*
X11007093Y-15759009D02*
X11026140Y-15749485D01*
X11026140Y-15749485D02*
X11073759Y-15749485D01*
X11073759Y-15749485D02*
X11092807Y-15759009D01*
X11092807Y-15759009D02*
X11102331Y-15768533D01*
X11102331Y-15768533D02*
X11111854Y-15787580D01*
X11111854Y-15787580D02*
X11111854Y-15835199D01*
X11111854Y-15835199D02*
X11102331Y-15854247D01*
X11102331Y-15854247D02*
X11092807Y-15863771D01*
X11092807Y-15863771D02*
X11073759Y-15873294D01*
X11073759Y-15873294D02*
X11026140Y-15873294D01*
X11026140Y-15873294D02*
X11007093Y-15863771D01*
X11007093Y-15863771D02*
X10997569Y-15854247D01*
X11188045Y-15673294D02*
X11188045Y-15711390D01*
X11264235Y-15673294D02*
X11264235Y-15711390D01*
X11559474Y-15949485D02*
X11549950Y-15939961D01*
X11549950Y-15939961D02*
X11530902Y-15911390D01*
X11530902Y-15911390D02*
X11521378Y-15892342D01*
X11521378Y-15892342D02*
X11511854Y-15863771D01*
X11511854Y-15863771D02*
X11502331Y-15816152D01*
X11502331Y-15816152D02*
X11502331Y-15778056D01*
X11502331Y-15778056D02*
X11511854Y-15730437D01*
X11511854Y-15730437D02*
X11521378Y-15701866D01*
X11521378Y-15701866D02*
X11530902Y-15682818D01*
X11530902Y-15682818D02*
X11549950Y-15654247D01*
X11549950Y-15654247D02*
X11559474Y-15644723D01*
X11616616Y-15673294D02*
X11740426Y-15673294D01*
X11740426Y-15673294D02*
X11673759Y-15749485D01*
X11673759Y-15749485D02*
X11702331Y-15749485D01*
X11702331Y-15749485D02*
X11721378Y-15759009D01*
X11721378Y-15759009D02*
X11730902Y-15768533D01*
X11730902Y-15768533D02*
X11740426Y-15787580D01*
X11740426Y-15787580D02*
X11740426Y-15835199D01*
X11740426Y-15835199D02*
X11730902Y-15854247D01*
X11730902Y-15854247D02*
X11721378Y-15863771D01*
X11721378Y-15863771D02*
X11702331Y-15873294D01*
X11702331Y-15873294D02*
X11645188Y-15873294D01*
X11645188Y-15873294D02*
X11626140Y-15863771D01*
X11626140Y-15863771D02*
X11616616Y-15854247D01*
X11816616Y-15692342D02*
X11826140Y-15682818D01*
X11826140Y-15682818D02*
X11845188Y-15673294D01*
X11845188Y-15673294D02*
X11892807Y-15673294D01*
X11892807Y-15673294D02*
X11911854Y-15682818D01*
X11911854Y-15682818D02*
X11921378Y-15692342D01*
X11921378Y-15692342D02*
X11930902Y-15711390D01*
X11930902Y-15711390D02*
X11930902Y-15730437D01*
X11930902Y-15730437D02*
X11921378Y-15759009D01*
X11921378Y-15759009D02*
X11807093Y-15873294D01*
X11807093Y-15873294D02*
X11930902Y-15873294D01*
X12168997Y-15873294D02*
X12168997Y-15673294D01*
X12254712Y-15873294D02*
X12254712Y-15768533D01*
X12254712Y-15768533D02*
X12245188Y-15749485D01*
X12245188Y-15749485D02*
X12226140Y-15739961D01*
X12226140Y-15739961D02*
X12197569Y-15739961D01*
X12197569Y-15739961D02*
X12178521Y-15749485D01*
X12178521Y-15749485D02*
X12168997Y-15759009D01*
X12378521Y-15873294D02*
X12359474Y-15863771D01*
X12359474Y-15863771D02*
X12349950Y-15854247D01*
X12349950Y-15854247D02*
X12340426Y-15835199D01*
X12340426Y-15835199D02*
X12340426Y-15778056D01*
X12340426Y-15778056D02*
X12349950Y-15759009D01*
X12349950Y-15759009D02*
X12359474Y-15749485D01*
X12359474Y-15749485D02*
X12378521Y-15739961D01*
X12378521Y-15739961D02*
X12407093Y-15739961D01*
X12407093Y-15739961D02*
X12426140Y-15749485D01*
X12426140Y-15749485D02*
X12435664Y-15759009D01*
X12435664Y-15759009D02*
X12445188Y-15778056D01*
X12445188Y-15778056D02*
X12445188Y-15835199D01*
X12445188Y-15835199D02*
X12435664Y-15854247D01*
X12435664Y-15854247D02*
X12426140Y-15863771D01*
X12426140Y-15863771D02*
X12407093Y-15873294D01*
X12407093Y-15873294D02*
X12378521Y-15873294D01*
X12559474Y-15873294D02*
X12540426Y-15863771D01*
X12540426Y-15863771D02*
X12530902Y-15844723D01*
X12530902Y-15844723D02*
X12530902Y-15673294D01*
X12711855Y-15863771D02*
X12692807Y-15873294D01*
X12692807Y-15873294D02*
X12654712Y-15873294D01*
X12654712Y-15873294D02*
X12635664Y-15863771D01*
X12635664Y-15863771D02*
X12626140Y-15844723D01*
X12626140Y-15844723D02*
X12626140Y-15768533D01*
X12626140Y-15768533D02*
X12635664Y-15749485D01*
X12635664Y-15749485D02*
X12654712Y-15739961D01*
X12654712Y-15739961D02*
X12692807Y-15739961D01*
X12692807Y-15739961D02*
X12711855Y-15749485D01*
X12711855Y-15749485D02*
X12721378Y-15768533D01*
X12721378Y-15768533D02*
X12721378Y-15787580D01*
X12721378Y-15787580D02*
X12626140Y-15806628D01*
X12797569Y-15863771D02*
X12816616Y-15873294D01*
X12816616Y-15873294D02*
X12854712Y-15873294D01*
X12854712Y-15873294D02*
X12873759Y-15863771D01*
X12873759Y-15863771D02*
X12883283Y-15844723D01*
X12883283Y-15844723D02*
X12883283Y-15835199D01*
X12883283Y-15835199D02*
X12873759Y-15816152D01*
X12873759Y-15816152D02*
X12854712Y-15806628D01*
X12854712Y-15806628D02*
X12826140Y-15806628D01*
X12826140Y-15806628D02*
X12807093Y-15797104D01*
X12807093Y-15797104D02*
X12797569Y-15778056D01*
X12797569Y-15778056D02*
X12797569Y-15768533D01*
X12797569Y-15768533D02*
X12807093Y-15749485D01*
X12807093Y-15749485D02*
X12826140Y-15739961D01*
X12826140Y-15739961D02*
X12854712Y-15739961D01*
X12854712Y-15739961D02*
X12873759Y-15749485D01*
X12949950Y-15949485D02*
X12959474Y-15939961D01*
X12959474Y-15939961D02*
X12978521Y-15911390D01*
X12978521Y-15911390D02*
X12988045Y-15892342D01*
X12988045Y-15892342D02*
X12997569Y-15863771D01*
X12997569Y-15863771D02*
X13007093Y-15816152D01*
X13007093Y-15816152D02*
X13007093Y-15778056D01*
X13007093Y-15778056D02*
X12997569Y-15730437D01*
X12997569Y-15730437D02*
X12988045Y-15701866D01*
X12988045Y-15701866D02*
X12978521Y-15682818D01*
X12978521Y-15682818D02*
X12959474Y-15654247D01*
X12959474Y-15654247D02*
X12949950Y-15644723D01*
D12*
X7970499Y-16079399D02*
X7970499Y-16012223D01*
X7903323Y-16012223D01*
X7903323Y-16079399D01*
X7970499Y-16079399D01*
D11*
X8283283Y-15937294D02*
X8302330Y-15937294D01*
X8302330Y-15937294D02*
X8321378Y-15946818D01*
X8321378Y-15946818D02*
X8330902Y-15956342D01*
X8330902Y-15956342D02*
X8340426Y-15975390D01*
X8340426Y-15975390D02*
X8349949Y-16013485D01*
X8349949Y-16013485D02*
X8349949Y-16061104D01*
X8349949Y-16061104D02*
X8340426Y-16099199D01*
X8340426Y-16099199D02*
X8330902Y-16118247D01*
X8330902Y-16118247D02*
X8321378Y-16127771D01*
X8321378Y-16127771D02*
X8302330Y-16137294D01*
X8302330Y-16137294D02*
X8283283Y-16137294D01*
X8283283Y-16137294D02*
X8264235Y-16127771D01*
X8264235Y-16127771D02*
X8254711Y-16118247D01*
X8254711Y-16118247D02*
X8245187Y-16099199D01*
X8245187Y-16099199D02*
X8235664Y-16061104D01*
X8235664Y-16061104D02*
X8235664Y-16013485D01*
X8235664Y-16013485D02*
X8245187Y-15975390D01*
X8245187Y-15975390D02*
X8254711Y-15956342D01*
X8254711Y-15956342D02*
X8264235Y-15946818D01*
X8264235Y-15946818D02*
X8283283Y-15937294D01*
X8435664Y-16118247D02*
X8445188Y-16127771D01*
X8445188Y-16127771D02*
X8435664Y-16137294D01*
X8435664Y-16137294D02*
X8426140Y-16127771D01*
X8426140Y-16127771D02*
X8435664Y-16118247D01*
X8435664Y-16118247D02*
X8435664Y-16137294D01*
X8540426Y-16137294D02*
X8578521Y-16137294D01*
X8578521Y-16137294D02*
X8597569Y-16127771D01*
X8597569Y-16127771D02*
X8607092Y-16118247D01*
X8607092Y-16118247D02*
X8626140Y-16089675D01*
X8626140Y-16089675D02*
X8635664Y-16051580D01*
X8635664Y-16051580D02*
X8635664Y-15975390D01*
X8635664Y-15975390D02*
X8626140Y-15956342D01*
X8626140Y-15956342D02*
X8616616Y-15946818D01*
X8616616Y-15946818D02*
X8597569Y-15937294D01*
X8597569Y-15937294D02*
X8559473Y-15937294D01*
X8559473Y-15937294D02*
X8540426Y-15946818D01*
X8540426Y-15946818D02*
X8530902Y-15956342D01*
X8530902Y-15956342D02*
X8521378Y-15975390D01*
X8521378Y-15975390D02*
X8521378Y-16023009D01*
X8521378Y-16023009D02*
X8530902Y-16042056D01*
X8530902Y-16042056D02*
X8540426Y-16051580D01*
X8540426Y-16051580D02*
X8559473Y-16061104D01*
X8559473Y-16061104D02*
X8597569Y-16061104D01*
X8597569Y-16061104D02*
X8616616Y-16051580D01*
X8616616Y-16051580D02*
X8626140Y-16042056D01*
X8626140Y-16042056D02*
X8635664Y-16023009D01*
X8816616Y-15937294D02*
X8721378Y-15937294D01*
X8721378Y-15937294D02*
X8711854Y-16032533D01*
X8711854Y-16032533D02*
X8721378Y-16023009D01*
X8721378Y-16023009D02*
X8740426Y-16013485D01*
X8740426Y-16013485D02*
X8788045Y-16013485D01*
X8788045Y-16013485D02*
X8807092Y-16023009D01*
X8807092Y-16023009D02*
X8816616Y-16032533D01*
X8816616Y-16032533D02*
X8826140Y-16051580D01*
X8826140Y-16051580D02*
X8826140Y-16099199D01*
X8826140Y-16099199D02*
X8816616Y-16118247D01*
X8816616Y-16118247D02*
X8807092Y-16127771D01*
X8807092Y-16127771D02*
X8788045Y-16137294D01*
X8788045Y-16137294D02*
X8740426Y-16137294D01*
X8740426Y-16137294D02*
X8721378Y-16127771D01*
X8721378Y-16127771D02*
X8711854Y-16118247D01*
X8949949Y-15937294D02*
X8968997Y-15937294D01*
X8968997Y-15937294D02*
X8988045Y-15946818D01*
X8988045Y-15946818D02*
X8997569Y-15956342D01*
X8997569Y-15956342D02*
X9007092Y-15975390D01*
X9007092Y-15975390D02*
X9016616Y-16013485D01*
X9016616Y-16013485D02*
X9016616Y-16061104D01*
X9016616Y-16061104D02*
X9007092Y-16099199D01*
X9007092Y-16099199D02*
X8997569Y-16118247D01*
X8997569Y-16118247D02*
X8988045Y-16127771D01*
X8988045Y-16127771D02*
X8968997Y-16137294D01*
X8968997Y-16137294D02*
X8949949Y-16137294D01*
X8949949Y-16137294D02*
X8930902Y-16127771D01*
X8930902Y-16127771D02*
X8921378Y-16118247D01*
X8921378Y-16118247D02*
X8911854Y-16099199D01*
X8911854Y-16099199D02*
X8902330Y-16061104D01*
X8902330Y-16061104D02*
X8902330Y-16013485D01*
X8902330Y-16013485D02*
X8911854Y-15975390D01*
X8911854Y-15975390D02*
X8921378Y-15956342D01*
X8921378Y-15956342D02*
X8930902Y-15946818D01*
X8930902Y-15946818D02*
X8949949Y-15937294D01*
X9102330Y-16137294D02*
X9102330Y-16003961D01*
X9102330Y-16023009D02*
X9111854Y-16013485D01*
X9111854Y-16013485D02*
X9130902Y-16003961D01*
X9130902Y-16003961D02*
X9159473Y-16003961D01*
X9159473Y-16003961D02*
X9178521Y-16013485D01*
X9178521Y-16013485D02*
X9188045Y-16032533D01*
X9188045Y-16032533D02*
X9188045Y-16137294D01*
X9188045Y-16032533D02*
X9197569Y-16013485D01*
X9197569Y-16013485D02*
X9216616Y-16003961D01*
X9216616Y-16003961D02*
X9245188Y-16003961D01*
X9245188Y-16003961D02*
X9264235Y-16013485D01*
X9264235Y-16013485D02*
X9273759Y-16032533D01*
X9273759Y-16032533D02*
X9273759Y-16137294D01*
X9368997Y-16137294D02*
X9368997Y-16003961D01*
X9368997Y-16023009D02*
X9378521Y-16013485D01*
X9378521Y-16013485D02*
X9397569Y-16003961D01*
X9397569Y-16003961D02*
X9426140Y-16003961D01*
X9426140Y-16003961D02*
X9445188Y-16013485D01*
X9445188Y-16013485D02*
X9454711Y-16032533D01*
X9454711Y-16032533D02*
X9454711Y-16137294D01*
X9454711Y-16032533D02*
X9464235Y-16013485D01*
X9464235Y-16013485D02*
X9483283Y-16003961D01*
X9483283Y-16003961D02*
X9511854Y-16003961D01*
X9511854Y-16003961D02*
X9530902Y-16013485D01*
X9530902Y-16013485D02*
X9540426Y-16032533D01*
X9540426Y-16032533D02*
X9540426Y-16137294D01*
X9930902Y-15927771D02*
X9759473Y-16184913D01*
X10188045Y-15937294D02*
X10207093Y-15937294D01*
X10207093Y-15937294D02*
X10226140Y-15946818D01*
X10226140Y-15946818D02*
X10235664Y-15956342D01*
X10235664Y-15956342D02*
X10245188Y-15975390D01*
X10245188Y-15975390D02*
X10254712Y-16013485D01*
X10254712Y-16013485D02*
X10254712Y-16061104D01*
X10254712Y-16061104D02*
X10245188Y-16099199D01*
X10245188Y-16099199D02*
X10235664Y-16118247D01*
X10235664Y-16118247D02*
X10226140Y-16127771D01*
X10226140Y-16127771D02*
X10207093Y-16137294D01*
X10207093Y-16137294D02*
X10188045Y-16137294D01*
X10188045Y-16137294D02*
X10168997Y-16127771D01*
X10168997Y-16127771D02*
X10159473Y-16118247D01*
X10159473Y-16118247D02*
X10149950Y-16099199D01*
X10149950Y-16099199D02*
X10140426Y-16061104D01*
X10140426Y-16061104D02*
X10140426Y-16013485D01*
X10140426Y-16013485D02*
X10149950Y-15975390D01*
X10149950Y-15975390D02*
X10159473Y-15956342D01*
X10159473Y-15956342D02*
X10168997Y-15946818D01*
X10168997Y-15946818D02*
X10188045Y-15937294D01*
X10340426Y-16118247D02*
X10349950Y-16127771D01*
X10349950Y-16127771D02*
X10340426Y-16137294D01*
X10340426Y-16137294D02*
X10330902Y-16127771D01*
X10330902Y-16127771D02*
X10340426Y-16118247D01*
X10340426Y-16118247D02*
X10340426Y-16137294D01*
X10473759Y-15937294D02*
X10492807Y-15937294D01*
X10492807Y-15937294D02*
X10511854Y-15946818D01*
X10511854Y-15946818D02*
X10521378Y-15956342D01*
X10521378Y-15956342D02*
X10530902Y-15975390D01*
X10530902Y-15975390D02*
X10540426Y-16013485D01*
X10540426Y-16013485D02*
X10540426Y-16061104D01*
X10540426Y-16061104D02*
X10530902Y-16099199D01*
X10530902Y-16099199D02*
X10521378Y-16118247D01*
X10521378Y-16118247D02*
X10511854Y-16127771D01*
X10511854Y-16127771D02*
X10492807Y-16137294D01*
X10492807Y-16137294D02*
X10473759Y-16137294D01*
X10473759Y-16137294D02*
X10454712Y-16127771D01*
X10454712Y-16127771D02*
X10445188Y-16118247D01*
X10445188Y-16118247D02*
X10435664Y-16099199D01*
X10435664Y-16099199D02*
X10426140Y-16061104D01*
X10426140Y-16061104D02*
X10426140Y-16013485D01*
X10426140Y-16013485D02*
X10435664Y-15975390D01*
X10435664Y-15975390D02*
X10445188Y-15956342D01*
X10445188Y-15956342D02*
X10454712Y-15946818D01*
X10454712Y-15946818D02*
X10473759Y-15937294D01*
X10607093Y-15937294D02*
X10730902Y-15937294D01*
X10730902Y-15937294D02*
X10664235Y-16013485D01*
X10664235Y-16013485D02*
X10692807Y-16013485D01*
X10692807Y-16013485D02*
X10711854Y-16023009D01*
X10711854Y-16023009D02*
X10721378Y-16032533D01*
X10721378Y-16032533D02*
X10730902Y-16051580D01*
X10730902Y-16051580D02*
X10730902Y-16099199D01*
X10730902Y-16099199D02*
X10721378Y-16118247D01*
X10721378Y-16118247D02*
X10711854Y-16127771D01*
X10711854Y-16127771D02*
X10692807Y-16137294D01*
X10692807Y-16137294D02*
X10635664Y-16137294D01*
X10635664Y-16137294D02*
X10616616Y-16127771D01*
X10616616Y-16127771D02*
X10607093Y-16118247D01*
X10797569Y-15937294D02*
X10930902Y-15937294D01*
X10930902Y-15937294D02*
X10845188Y-16137294D01*
X11092807Y-16003961D02*
X11092807Y-16137294D01*
X11045188Y-15927771D02*
X10997569Y-16070628D01*
X10997569Y-16070628D02*
X11121378Y-16070628D01*
X11188045Y-15937294D02*
X11188045Y-15975390D01*
X11264235Y-15937294D02*
X11264235Y-15975390D01*
X11559474Y-16213485D02*
X11549950Y-16203961D01*
X11549950Y-16203961D02*
X11530902Y-16175390D01*
X11530902Y-16175390D02*
X11521378Y-16156342D01*
X11521378Y-16156342D02*
X11511854Y-16127771D01*
X11511854Y-16127771D02*
X11502331Y-16080152D01*
X11502331Y-16080152D02*
X11502331Y-16042056D01*
X11502331Y-16042056D02*
X11511854Y-15994437D01*
X11511854Y-15994437D02*
X11521378Y-15965866D01*
X11521378Y-15965866D02*
X11530902Y-15946818D01*
X11530902Y-15946818D02*
X11549950Y-15918247D01*
X11549950Y-15918247D02*
X11559474Y-15908723D01*
X11721378Y-16003961D02*
X11721378Y-16137294D01*
X11673759Y-15927771D02*
X11626140Y-16070628D01*
X11626140Y-16070628D02*
X11749950Y-16070628D01*
X11978521Y-16137294D02*
X11978521Y-15937294D01*
X12064235Y-16137294D02*
X12064235Y-16032533D01*
X12064235Y-16032533D02*
X12054712Y-16013485D01*
X12054712Y-16013485D02*
X12035664Y-16003961D01*
X12035664Y-16003961D02*
X12007093Y-16003961D01*
X12007093Y-16003961D02*
X11988045Y-16013485D01*
X11988045Y-16013485D02*
X11978521Y-16023009D01*
X12188045Y-16137294D02*
X12168997Y-16127771D01*
X12168997Y-16127771D02*
X12159474Y-16118247D01*
X12159474Y-16118247D02*
X12149950Y-16099199D01*
X12149950Y-16099199D02*
X12149950Y-16042056D01*
X12149950Y-16042056D02*
X12159474Y-16023009D01*
X12159474Y-16023009D02*
X12168997Y-16013485D01*
X12168997Y-16013485D02*
X12188045Y-16003961D01*
X12188045Y-16003961D02*
X12216616Y-16003961D01*
X12216616Y-16003961D02*
X12235664Y-16013485D01*
X12235664Y-16013485D02*
X12245188Y-16023009D01*
X12245188Y-16023009D02*
X12254712Y-16042056D01*
X12254712Y-16042056D02*
X12254712Y-16099199D01*
X12254712Y-16099199D02*
X12245188Y-16118247D01*
X12245188Y-16118247D02*
X12235664Y-16127771D01*
X12235664Y-16127771D02*
X12216616Y-16137294D01*
X12216616Y-16137294D02*
X12188045Y-16137294D01*
X12368997Y-16137294D02*
X12349950Y-16127771D01*
X12349950Y-16127771D02*
X12340426Y-16108723D01*
X12340426Y-16108723D02*
X12340426Y-15937294D01*
X12521378Y-16127771D02*
X12502331Y-16137294D01*
X12502331Y-16137294D02*
X12464235Y-16137294D01*
X12464235Y-16137294D02*
X12445188Y-16127771D01*
X12445188Y-16127771D02*
X12435664Y-16108723D01*
X12435664Y-16108723D02*
X12435664Y-16032533D01*
X12435664Y-16032533D02*
X12445188Y-16013485D01*
X12445188Y-16013485D02*
X12464235Y-16003961D01*
X12464235Y-16003961D02*
X12502331Y-16003961D01*
X12502331Y-16003961D02*
X12521378Y-16013485D01*
X12521378Y-16013485D02*
X12530902Y-16032533D01*
X12530902Y-16032533D02*
X12530902Y-16051580D01*
X12530902Y-16051580D02*
X12435664Y-16070628D01*
X12607093Y-16127771D02*
X12626140Y-16137294D01*
X12626140Y-16137294D02*
X12664235Y-16137294D01*
X12664235Y-16137294D02*
X12683283Y-16127771D01*
X12683283Y-16127771D02*
X12692807Y-16108723D01*
X12692807Y-16108723D02*
X12692807Y-16099199D01*
X12692807Y-16099199D02*
X12683283Y-16080152D01*
X12683283Y-16080152D02*
X12664235Y-16070628D01*
X12664235Y-16070628D02*
X12635664Y-16070628D01*
X12635664Y-16070628D02*
X12616616Y-16061104D01*
X12616616Y-16061104D02*
X12607093Y-16042056D01*
X12607093Y-16042056D02*
X12607093Y-16032533D01*
X12607093Y-16032533D02*
X12616616Y-16013485D01*
X12616616Y-16013485D02*
X12635664Y-16003961D01*
X12635664Y-16003961D02*
X12664235Y-16003961D01*
X12664235Y-16003961D02*
X12683283Y-16013485D01*
X12759474Y-16213485D02*
X12768997Y-16203961D01*
X12768997Y-16203961D02*
X12788045Y-16175390D01*
X12788045Y-16175390D02*
X12797569Y-16156342D01*
X12797569Y-16156342D02*
X12807093Y-16127771D01*
X12807093Y-16127771D02*
X12816616Y-16080152D01*
X12816616Y-16080152D02*
X12816616Y-16042056D01*
X12816616Y-16042056D02*
X12807093Y-15994437D01*
X12807093Y-15994437D02*
X12797569Y-15965866D01*
X12797569Y-15965866D02*
X12788045Y-15946818D01*
X12788045Y-15946818D02*
X12768997Y-15918247D01*
X12768997Y-15918247D02*
X12759474Y-15908723D01*
D12*
X7934411Y-16359811D02*
X7984411Y-16309811D01*
X7934411Y-16259811D01*
X7884411Y-16309811D01*
X7934411Y-16359811D01*
D11*
X8349949Y-16401294D02*
X8235664Y-16401294D01*
X8292806Y-16401294D02*
X8292806Y-16201294D01*
X8292806Y-16201294D02*
X8273759Y-16229866D01*
X8273759Y-16229866D02*
X8254711Y-16248913D01*
X8254711Y-16248913D02*
X8235664Y-16258437D01*
X8435664Y-16382247D02*
X8445188Y-16391771D01*
X8445188Y-16391771D02*
X8435664Y-16401294D01*
X8435664Y-16401294D02*
X8426140Y-16391771D01*
X8426140Y-16391771D02*
X8435664Y-16382247D01*
X8435664Y-16382247D02*
X8435664Y-16401294D01*
X8568997Y-16201294D02*
X8588045Y-16201294D01*
X8588045Y-16201294D02*
X8607092Y-16210818D01*
X8607092Y-16210818D02*
X8616616Y-16220342D01*
X8616616Y-16220342D02*
X8626140Y-16239390D01*
X8626140Y-16239390D02*
X8635664Y-16277485D01*
X8635664Y-16277485D02*
X8635664Y-16325104D01*
X8635664Y-16325104D02*
X8626140Y-16363199D01*
X8626140Y-16363199D02*
X8616616Y-16382247D01*
X8616616Y-16382247D02*
X8607092Y-16391771D01*
X8607092Y-16391771D02*
X8588045Y-16401294D01*
X8588045Y-16401294D02*
X8568997Y-16401294D01*
X8568997Y-16401294D02*
X8549949Y-16391771D01*
X8549949Y-16391771D02*
X8540426Y-16382247D01*
X8540426Y-16382247D02*
X8530902Y-16363199D01*
X8530902Y-16363199D02*
X8521378Y-16325104D01*
X8521378Y-16325104D02*
X8521378Y-16277485D01*
X8521378Y-16277485D02*
X8530902Y-16239390D01*
X8530902Y-16239390D02*
X8540426Y-16220342D01*
X8540426Y-16220342D02*
X8549949Y-16210818D01*
X8549949Y-16210818D02*
X8568997Y-16201294D01*
X8759473Y-16201294D02*
X8778521Y-16201294D01*
X8778521Y-16201294D02*
X8797569Y-16210818D01*
X8797569Y-16210818D02*
X8807092Y-16220342D01*
X8807092Y-16220342D02*
X8816616Y-16239390D01*
X8816616Y-16239390D02*
X8826140Y-16277485D01*
X8826140Y-16277485D02*
X8826140Y-16325104D01*
X8826140Y-16325104D02*
X8816616Y-16363199D01*
X8816616Y-16363199D02*
X8807092Y-16382247D01*
X8807092Y-16382247D02*
X8797569Y-16391771D01*
X8797569Y-16391771D02*
X8778521Y-16401294D01*
X8778521Y-16401294D02*
X8759473Y-16401294D01*
X8759473Y-16401294D02*
X8740426Y-16391771D01*
X8740426Y-16391771D02*
X8730902Y-16382247D01*
X8730902Y-16382247D02*
X8721378Y-16363199D01*
X8721378Y-16363199D02*
X8711854Y-16325104D01*
X8711854Y-16325104D02*
X8711854Y-16277485D01*
X8711854Y-16277485D02*
X8721378Y-16239390D01*
X8721378Y-16239390D02*
X8730902Y-16220342D01*
X8730902Y-16220342D02*
X8740426Y-16210818D01*
X8740426Y-16210818D02*
X8759473Y-16201294D01*
X8949949Y-16201294D02*
X8968997Y-16201294D01*
X8968997Y-16201294D02*
X8988045Y-16210818D01*
X8988045Y-16210818D02*
X8997569Y-16220342D01*
X8997569Y-16220342D02*
X9007092Y-16239390D01*
X9007092Y-16239390D02*
X9016616Y-16277485D01*
X9016616Y-16277485D02*
X9016616Y-16325104D01*
X9016616Y-16325104D02*
X9007092Y-16363199D01*
X9007092Y-16363199D02*
X8997569Y-16382247D01*
X8997569Y-16382247D02*
X8988045Y-16391771D01*
X8988045Y-16391771D02*
X8968997Y-16401294D01*
X8968997Y-16401294D02*
X8949949Y-16401294D01*
X8949949Y-16401294D02*
X8930902Y-16391771D01*
X8930902Y-16391771D02*
X8921378Y-16382247D01*
X8921378Y-16382247D02*
X8911854Y-16363199D01*
X8911854Y-16363199D02*
X8902330Y-16325104D01*
X8902330Y-16325104D02*
X8902330Y-16277485D01*
X8902330Y-16277485D02*
X8911854Y-16239390D01*
X8911854Y-16239390D02*
X8921378Y-16220342D01*
X8921378Y-16220342D02*
X8930902Y-16210818D01*
X8930902Y-16210818D02*
X8949949Y-16201294D01*
X9102330Y-16401294D02*
X9102330Y-16267961D01*
X9102330Y-16287009D02*
X9111854Y-16277485D01*
X9111854Y-16277485D02*
X9130902Y-16267961D01*
X9130902Y-16267961D02*
X9159473Y-16267961D01*
X9159473Y-16267961D02*
X9178521Y-16277485D01*
X9178521Y-16277485D02*
X9188045Y-16296533D01*
X9188045Y-16296533D02*
X9188045Y-16401294D01*
X9188045Y-16296533D02*
X9197569Y-16277485D01*
X9197569Y-16277485D02*
X9216616Y-16267961D01*
X9216616Y-16267961D02*
X9245188Y-16267961D01*
X9245188Y-16267961D02*
X9264235Y-16277485D01*
X9264235Y-16277485D02*
X9273759Y-16296533D01*
X9273759Y-16296533D02*
X9273759Y-16401294D01*
X9368997Y-16401294D02*
X9368997Y-16267961D01*
X9368997Y-16287009D02*
X9378521Y-16277485D01*
X9378521Y-16277485D02*
X9397569Y-16267961D01*
X9397569Y-16267961D02*
X9426140Y-16267961D01*
X9426140Y-16267961D02*
X9445188Y-16277485D01*
X9445188Y-16277485D02*
X9454711Y-16296533D01*
X9454711Y-16296533D02*
X9454711Y-16401294D01*
X9454711Y-16296533D02*
X9464235Y-16277485D01*
X9464235Y-16277485D02*
X9483283Y-16267961D01*
X9483283Y-16267961D02*
X9511854Y-16267961D01*
X9511854Y-16267961D02*
X9530902Y-16277485D01*
X9530902Y-16277485D02*
X9540426Y-16296533D01*
X9540426Y-16296533D02*
X9540426Y-16401294D01*
X9930902Y-16191771D02*
X9759473Y-16448913D01*
X10188045Y-16201294D02*
X10207093Y-16201294D01*
X10207093Y-16201294D02*
X10226140Y-16210818D01*
X10226140Y-16210818D02*
X10235664Y-16220342D01*
X10235664Y-16220342D02*
X10245188Y-16239390D01*
X10245188Y-16239390D02*
X10254712Y-16277485D01*
X10254712Y-16277485D02*
X10254712Y-16325104D01*
X10254712Y-16325104D02*
X10245188Y-16363199D01*
X10245188Y-16363199D02*
X10235664Y-16382247D01*
X10235664Y-16382247D02*
X10226140Y-16391771D01*
X10226140Y-16391771D02*
X10207093Y-16401294D01*
X10207093Y-16401294D02*
X10188045Y-16401294D01*
X10188045Y-16401294D02*
X10168997Y-16391771D01*
X10168997Y-16391771D02*
X10159473Y-16382247D01*
X10159473Y-16382247D02*
X10149950Y-16363199D01*
X10149950Y-16363199D02*
X10140426Y-16325104D01*
X10140426Y-16325104D02*
X10140426Y-16277485D01*
X10140426Y-16277485D02*
X10149950Y-16239390D01*
X10149950Y-16239390D02*
X10159473Y-16220342D01*
X10159473Y-16220342D02*
X10168997Y-16210818D01*
X10168997Y-16210818D02*
X10188045Y-16201294D01*
X10340426Y-16382247D02*
X10349950Y-16391771D01*
X10349950Y-16391771D02*
X10340426Y-16401294D01*
X10340426Y-16401294D02*
X10330902Y-16391771D01*
X10330902Y-16391771D02*
X10340426Y-16382247D01*
X10340426Y-16382247D02*
X10340426Y-16401294D01*
X10473759Y-16201294D02*
X10492807Y-16201294D01*
X10492807Y-16201294D02*
X10511854Y-16210818D01*
X10511854Y-16210818D02*
X10521378Y-16220342D01*
X10521378Y-16220342D02*
X10530902Y-16239390D01*
X10530902Y-16239390D02*
X10540426Y-16277485D01*
X10540426Y-16277485D02*
X10540426Y-16325104D01*
X10540426Y-16325104D02*
X10530902Y-16363199D01*
X10530902Y-16363199D02*
X10521378Y-16382247D01*
X10521378Y-16382247D02*
X10511854Y-16391771D01*
X10511854Y-16391771D02*
X10492807Y-16401294D01*
X10492807Y-16401294D02*
X10473759Y-16401294D01*
X10473759Y-16401294D02*
X10454712Y-16391771D01*
X10454712Y-16391771D02*
X10445188Y-16382247D01*
X10445188Y-16382247D02*
X10435664Y-16363199D01*
X10435664Y-16363199D02*
X10426140Y-16325104D01*
X10426140Y-16325104D02*
X10426140Y-16277485D01*
X10426140Y-16277485D02*
X10435664Y-16239390D01*
X10435664Y-16239390D02*
X10445188Y-16220342D01*
X10445188Y-16220342D02*
X10454712Y-16210818D01*
X10454712Y-16210818D02*
X10473759Y-16201294D01*
X10607093Y-16201294D02*
X10730902Y-16201294D01*
X10730902Y-16201294D02*
X10664235Y-16277485D01*
X10664235Y-16277485D02*
X10692807Y-16277485D01*
X10692807Y-16277485D02*
X10711854Y-16287009D01*
X10711854Y-16287009D02*
X10721378Y-16296533D01*
X10721378Y-16296533D02*
X10730902Y-16315580D01*
X10730902Y-16315580D02*
X10730902Y-16363199D01*
X10730902Y-16363199D02*
X10721378Y-16382247D01*
X10721378Y-16382247D02*
X10711854Y-16391771D01*
X10711854Y-16391771D02*
X10692807Y-16401294D01*
X10692807Y-16401294D02*
X10635664Y-16401294D01*
X10635664Y-16401294D02*
X10616616Y-16391771D01*
X10616616Y-16391771D02*
X10607093Y-16382247D01*
X10826140Y-16401294D02*
X10864235Y-16401294D01*
X10864235Y-16401294D02*
X10883283Y-16391771D01*
X10883283Y-16391771D02*
X10892807Y-16382247D01*
X10892807Y-16382247D02*
X10911854Y-16353675D01*
X10911854Y-16353675D02*
X10921378Y-16315580D01*
X10921378Y-16315580D02*
X10921378Y-16239390D01*
X10921378Y-16239390D02*
X10911854Y-16220342D01*
X10911854Y-16220342D02*
X10902331Y-16210818D01*
X10902331Y-16210818D02*
X10883283Y-16201294D01*
X10883283Y-16201294D02*
X10845188Y-16201294D01*
X10845188Y-16201294D02*
X10826140Y-16210818D01*
X10826140Y-16210818D02*
X10816616Y-16220342D01*
X10816616Y-16220342D02*
X10807093Y-16239390D01*
X10807093Y-16239390D02*
X10807093Y-16287009D01*
X10807093Y-16287009D02*
X10816616Y-16306056D01*
X10816616Y-16306056D02*
X10826140Y-16315580D01*
X10826140Y-16315580D02*
X10845188Y-16325104D01*
X10845188Y-16325104D02*
X10883283Y-16325104D01*
X10883283Y-16325104D02*
X10902331Y-16315580D01*
X10902331Y-16315580D02*
X10911854Y-16306056D01*
X10911854Y-16306056D02*
X10921378Y-16287009D01*
X11092807Y-16267961D02*
X11092807Y-16401294D01*
X11045188Y-16191771D02*
X10997569Y-16334628D01*
X10997569Y-16334628D02*
X11121378Y-16334628D01*
X11188045Y-16201294D02*
X11188045Y-16239390D01*
X11264235Y-16201294D02*
X11264235Y-16239390D01*
X11559474Y-16477485D02*
X11549950Y-16467961D01*
X11549950Y-16467961D02*
X11530902Y-16439390D01*
X11530902Y-16439390D02*
X11521378Y-16420342D01*
X11521378Y-16420342D02*
X11511854Y-16391771D01*
X11511854Y-16391771D02*
X11502331Y-16344152D01*
X11502331Y-16344152D02*
X11502331Y-16306056D01*
X11502331Y-16306056D02*
X11511854Y-16258437D01*
X11511854Y-16258437D02*
X11521378Y-16229866D01*
X11521378Y-16229866D02*
X11530902Y-16210818D01*
X11530902Y-16210818D02*
X11549950Y-16182247D01*
X11549950Y-16182247D02*
X11559474Y-16172723D01*
X11721378Y-16267961D02*
X11721378Y-16401294D01*
X11673759Y-16191771D02*
X11626140Y-16334628D01*
X11626140Y-16334628D02*
X11749950Y-16334628D01*
X11911854Y-16267961D02*
X11911854Y-16401294D01*
X11864235Y-16191771D02*
X11816616Y-16334628D01*
X11816616Y-16334628D02*
X11940426Y-16334628D01*
X12168997Y-16401294D02*
X12168997Y-16201294D01*
X12254712Y-16401294D02*
X12254712Y-16296533D01*
X12254712Y-16296533D02*
X12245188Y-16277485D01*
X12245188Y-16277485D02*
X12226140Y-16267961D01*
X12226140Y-16267961D02*
X12197569Y-16267961D01*
X12197569Y-16267961D02*
X12178521Y-16277485D01*
X12178521Y-16277485D02*
X12168997Y-16287009D01*
X12378521Y-16401294D02*
X12359474Y-16391771D01*
X12359474Y-16391771D02*
X12349950Y-16382247D01*
X12349950Y-16382247D02*
X12340426Y-16363199D01*
X12340426Y-16363199D02*
X12340426Y-16306056D01*
X12340426Y-16306056D02*
X12349950Y-16287009D01*
X12349950Y-16287009D02*
X12359474Y-16277485D01*
X12359474Y-16277485D02*
X12378521Y-16267961D01*
X12378521Y-16267961D02*
X12407093Y-16267961D01*
X12407093Y-16267961D02*
X12426140Y-16277485D01*
X12426140Y-16277485D02*
X12435664Y-16287009D01*
X12435664Y-16287009D02*
X12445188Y-16306056D01*
X12445188Y-16306056D02*
X12445188Y-16363199D01*
X12445188Y-16363199D02*
X12435664Y-16382247D01*
X12435664Y-16382247D02*
X12426140Y-16391771D01*
X12426140Y-16391771D02*
X12407093Y-16401294D01*
X12407093Y-16401294D02*
X12378521Y-16401294D01*
X12559474Y-16401294D02*
X12540426Y-16391771D01*
X12540426Y-16391771D02*
X12530902Y-16372723D01*
X12530902Y-16372723D02*
X12530902Y-16201294D01*
X12711855Y-16391771D02*
X12692807Y-16401294D01*
X12692807Y-16401294D02*
X12654712Y-16401294D01*
X12654712Y-16401294D02*
X12635664Y-16391771D01*
X12635664Y-16391771D02*
X12626140Y-16372723D01*
X12626140Y-16372723D02*
X12626140Y-16296533D01*
X12626140Y-16296533D02*
X12635664Y-16277485D01*
X12635664Y-16277485D02*
X12654712Y-16267961D01*
X12654712Y-16267961D02*
X12692807Y-16267961D01*
X12692807Y-16267961D02*
X12711855Y-16277485D01*
X12711855Y-16277485D02*
X12721378Y-16296533D01*
X12721378Y-16296533D02*
X12721378Y-16315580D01*
X12721378Y-16315580D02*
X12626140Y-16334628D01*
X12797569Y-16391771D02*
X12816616Y-16401294D01*
X12816616Y-16401294D02*
X12854712Y-16401294D01*
X12854712Y-16401294D02*
X12873759Y-16391771D01*
X12873759Y-16391771D02*
X12883283Y-16372723D01*
X12883283Y-16372723D02*
X12883283Y-16363199D01*
X12883283Y-16363199D02*
X12873759Y-16344152D01*
X12873759Y-16344152D02*
X12854712Y-16334628D01*
X12854712Y-16334628D02*
X12826140Y-16334628D01*
X12826140Y-16334628D02*
X12807093Y-16325104D01*
X12807093Y-16325104D02*
X12797569Y-16306056D01*
X12797569Y-16306056D02*
X12797569Y-16296533D01*
X12797569Y-16296533D02*
X12807093Y-16277485D01*
X12807093Y-16277485D02*
X12826140Y-16267961D01*
X12826140Y-16267961D02*
X12854712Y-16267961D01*
X12854712Y-16267961D02*
X12873759Y-16277485D01*
X13121378Y-16325104D02*
X13273759Y-16325104D01*
X13197569Y-16401294D02*
X13197569Y-16248913D01*
X13502331Y-16201294D02*
X13626140Y-16201294D01*
X13626140Y-16201294D02*
X13559474Y-16277485D01*
X13559474Y-16277485D02*
X13588045Y-16277485D01*
X13588045Y-16277485D02*
X13607093Y-16287009D01*
X13607093Y-16287009D02*
X13616617Y-16296533D01*
X13616617Y-16296533D02*
X13626140Y-16315580D01*
X13626140Y-16315580D02*
X13626140Y-16363199D01*
X13626140Y-16363199D02*
X13616617Y-16382247D01*
X13616617Y-16382247D02*
X13607093Y-16391771D01*
X13607093Y-16391771D02*
X13588045Y-16401294D01*
X13588045Y-16401294D02*
X13530902Y-16401294D01*
X13530902Y-16401294D02*
X13511855Y-16391771D01*
X13511855Y-16391771D02*
X13502331Y-16382247D01*
X13854712Y-16391771D02*
X13873759Y-16401294D01*
X13873759Y-16401294D02*
X13911855Y-16401294D01*
X13911855Y-16401294D02*
X13930902Y-16391771D01*
X13930902Y-16391771D02*
X13940426Y-16372723D01*
X13940426Y-16372723D02*
X13940426Y-16363199D01*
X13940426Y-16363199D02*
X13930902Y-16344152D01*
X13930902Y-16344152D02*
X13911855Y-16334628D01*
X13911855Y-16334628D02*
X13883283Y-16334628D01*
X13883283Y-16334628D02*
X13864236Y-16325104D01*
X13864236Y-16325104D02*
X13854712Y-16306056D01*
X13854712Y-16306056D02*
X13854712Y-16296533D01*
X13854712Y-16296533D02*
X13864236Y-16277485D01*
X13864236Y-16277485D02*
X13883283Y-16267961D01*
X13883283Y-16267961D02*
X13911855Y-16267961D01*
X13911855Y-16267961D02*
X13930902Y-16277485D01*
X14054712Y-16401294D02*
X14035664Y-16391771D01*
X14035664Y-16391771D02*
X14026140Y-16372723D01*
X14026140Y-16372723D02*
X14026140Y-16201294D01*
X14159474Y-16401294D02*
X14140426Y-16391771D01*
X14140426Y-16391771D02*
X14130902Y-16382247D01*
X14130902Y-16382247D02*
X14121379Y-16363199D01*
X14121379Y-16363199D02*
X14121379Y-16306056D01*
X14121379Y-16306056D02*
X14130902Y-16287009D01*
X14130902Y-16287009D02*
X14140426Y-16277485D01*
X14140426Y-16277485D02*
X14159474Y-16267961D01*
X14159474Y-16267961D02*
X14188045Y-16267961D01*
X14188045Y-16267961D02*
X14207093Y-16277485D01*
X14207093Y-16277485D02*
X14216617Y-16287009D01*
X14216617Y-16287009D02*
X14226140Y-16306056D01*
X14226140Y-16306056D02*
X14226140Y-16363199D01*
X14226140Y-16363199D02*
X14216617Y-16382247D01*
X14216617Y-16382247D02*
X14207093Y-16391771D01*
X14207093Y-16391771D02*
X14188045Y-16401294D01*
X14188045Y-16401294D02*
X14159474Y-16401294D01*
X14283283Y-16267961D02*
X14359474Y-16267961D01*
X14311855Y-16201294D02*
X14311855Y-16372723D01*
X14311855Y-16372723D02*
X14321379Y-16391771D01*
X14321379Y-16391771D02*
X14340426Y-16401294D01*
X14340426Y-16401294D02*
X14359474Y-16401294D01*
X14416617Y-16391771D02*
X14435664Y-16401294D01*
X14435664Y-16401294D02*
X14473759Y-16401294D01*
X14473759Y-16401294D02*
X14492807Y-16391771D01*
X14492807Y-16391771D02*
X14502331Y-16372723D01*
X14502331Y-16372723D02*
X14502331Y-16363199D01*
X14502331Y-16363199D02*
X14492807Y-16344152D01*
X14492807Y-16344152D02*
X14473759Y-16334628D01*
X14473759Y-16334628D02*
X14445188Y-16334628D01*
X14445188Y-16334628D02*
X14426140Y-16325104D01*
X14426140Y-16325104D02*
X14416617Y-16306056D01*
X14416617Y-16306056D02*
X14416617Y-16296533D01*
X14416617Y-16296533D02*
X14426140Y-16277485D01*
X14426140Y-16277485D02*
X14445188Y-16267961D01*
X14445188Y-16267961D02*
X14473759Y-16267961D01*
X14473759Y-16267961D02*
X14492807Y-16277485D01*
X14568998Y-16477485D02*
X14578521Y-16467961D01*
X14578521Y-16467961D02*
X14597569Y-16439390D01*
X14597569Y-16439390D02*
X14607093Y-16420342D01*
X14607093Y-16420342D02*
X14616617Y-16391771D01*
X14616617Y-16391771D02*
X14626140Y-16344152D01*
X14626140Y-16344152D02*
X14626140Y-16306056D01*
X14626140Y-16306056D02*
X14616617Y-16258437D01*
X14616617Y-16258437D02*
X14607093Y-16229866D01*
X14607093Y-16229866D02*
X14597569Y-16210818D01*
X14597569Y-16210818D02*
X14578521Y-16182247D01*
X14578521Y-16182247D02*
X14568998Y-16172723D01*
D13*
X7874411Y-16518811D02*
X7984411Y-16628811D01*
X7984411Y-16518811D02*
X7874411Y-16628811D01*
X7984411Y-16573811D02*
G75*
G02*
X7874411Y-16573811I-55000J0D01*
G01*
X7874411Y-16573811D02*
G75*
G02*
X7984411Y-16573811I55000J0D01*
G01*
D11*
X8349949Y-16665294D02*
X8235664Y-16665294D01*
X8292806Y-16665294D02*
X8292806Y-16465294D01*
X8292806Y-16465294D02*
X8273759Y-16493866D01*
X8273759Y-16493866D02*
X8254711Y-16512913D01*
X8254711Y-16512913D02*
X8235664Y-16522437D01*
X8435664Y-16646247D02*
X8445188Y-16655771D01*
X8445188Y-16655771D02*
X8435664Y-16665294D01*
X8435664Y-16665294D02*
X8426140Y-16655771D01*
X8426140Y-16655771D02*
X8435664Y-16646247D01*
X8435664Y-16646247D02*
X8435664Y-16665294D01*
X8635664Y-16665294D02*
X8521378Y-16665294D01*
X8578521Y-16665294D02*
X8578521Y-16465294D01*
X8578521Y-16465294D02*
X8559473Y-16493866D01*
X8559473Y-16493866D02*
X8540426Y-16512913D01*
X8540426Y-16512913D02*
X8521378Y-16522437D01*
X8759473Y-16465294D02*
X8778521Y-16465294D01*
X8778521Y-16465294D02*
X8797569Y-16474818D01*
X8797569Y-16474818D02*
X8807092Y-16484342D01*
X8807092Y-16484342D02*
X8816616Y-16503390D01*
X8816616Y-16503390D02*
X8826140Y-16541485D01*
X8826140Y-16541485D02*
X8826140Y-16589104D01*
X8826140Y-16589104D02*
X8816616Y-16627199D01*
X8816616Y-16627199D02*
X8807092Y-16646247D01*
X8807092Y-16646247D02*
X8797569Y-16655771D01*
X8797569Y-16655771D02*
X8778521Y-16665294D01*
X8778521Y-16665294D02*
X8759473Y-16665294D01*
X8759473Y-16665294D02*
X8740426Y-16655771D01*
X8740426Y-16655771D02*
X8730902Y-16646247D01*
X8730902Y-16646247D02*
X8721378Y-16627199D01*
X8721378Y-16627199D02*
X8711854Y-16589104D01*
X8711854Y-16589104D02*
X8711854Y-16541485D01*
X8711854Y-16541485D02*
X8721378Y-16503390D01*
X8721378Y-16503390D02*
X8730902Y-16484342D01*
X8730902Y-16484342D02*
X8740426Y-16474818D01*
X8740426Y-16474818D02*
X8759473Y-16465294D01*
X8949949Y-16465294D02*
X8968997Y-16465294D01*
X8968997Y-16465294D02*
X8988045Y-16474818D01*
X8988045Y-16474818D02*
X8997569Y-16484342D01*
X8997569Y-16484342D02*
X9007092Y-16503390D01*
X9007092Y-16503390D02*
X9016616Y-16541485D01*
X9016616Y-16541485D02*
X9016616Y-16589104D01*
X9016616Y-16589104D02*
X9007092Y-16627199D01*
X9007092Y-16627199D02*
X8997569Y-16646247D01*
X8997569Y-16646247D02*
X8988045Y-16655771D01*
X8988045Y-16655771D02*
X8968997Y-16665294D01*
X8968997Y-16665294D02*
X8949949Y-16665294D01*
X8949949Y-16665294D02*
X8930902Y-16655771D01*
X8930902Y-16655771D02*
X8921378Y-16646247D01*
X8921378Y-16646247D02*
X8911854Y-16627199D01*
X8911854Y-16627199D02*
X8902330Y-16589104D01*
X8902330Y-16589104D02*
X8902330Y-16541485D01*
X8902330Y-16541485D02*
X8911854Y-16503390D01*
X8911854Y-16503390D02*
X8921378Y-16484342D01*
X8921378Y-16484342D02*
X8930902Y-16474818D01*
X8930902Y-16474818D02*
X8949949Y-16465294D01*
X9102330Y-16665294D02*
X9102330Y-16531961D01*
X9102330Y-16551009D02*
X9111854Y-16541485D01*
X9111854Y-16541485D02*
X9130902Y-16531961D01*
X9130902Y-16531961D02*
X9159473Y-16531961D01*
X9159473Y-16531961D02*
X9178521Y-16541485D01*
X9178521Y-16541485D02*
X9188045Y-16560533D01*
X9188045Y-16560533D02*
X9188045Y-16665294D01*
X9188045Y-16560533D02*
X9197569Y-16541485D01*
X9197569Y-16541485D02*
X9216616Y-16531961D01*
X9216616Y-16531961D02*
X9245188Y-16531961D01*
X9245188Y-16531961D02*
X9264235Y-16541485D01*
X9264235Y-16541485D02*
X9273759Y-16560533D01*
X9273759Y-16560533D02*
X9273759Y-16665294D01*
X9368997Y-16665294D02*
X9368997Y-16531961D01*
X9368997Y-16551009D02*
X9378521Y-16541485D01*
X9378521Y-16541485D02*
X9397569Y-16531961D01*
X9397569Y-16531961D02*
X9426140Y-16531961D01*
X9426140Y-16531961D02*
X9445188Y-16541485D01*
X9445188Y-16541485D02*
X9454711Y-16560533D01*
X9454711Y-16560533D02*
X9454711Y-16665294D01*
X9454711Y-16560533D02*
X9464235Y-16541485D01*
X9464235Y-16541485D02*
X9483283Y-16531961D01*
X9483283Y-16531961D02*
X9511854Y-16531961D01*
X9511854Y-16531961D02*
X9530902Y-16541485D01*
X9530902Y-16541485D02*
X9540426Y-16560533D01*
X9540426Y-16560533D02*
X9540426Y-16665294D01*
X9930902Y-16455771D02*
X9759473Y-16712913D01*
X10188045Y-16465294D02*
X10207093Y-16465294D01*
X10207093Y-16465294D02*
X10226140Y-16474818D01*
X10226140Y-16474818D02*
X10235664Y-16484342D01*
X10235664Y-16484342D02*
X10245188Y-16503390D01*
X10245188Y-16503390D02*
X10254712Y-16541485D01*
X10254712Y-16541485D02*
X10254712Y-16589104D01*
X10254712Y-16589104D02*
X10245188Y-16627199D01*
X10245188Y-16627199D02*
X10235664Y-16646247D01*
X10235664Y-16646247D02*
X10226140Y-16655771D01*
X10226140Y-16655771D02*
X10207093Y-16665294D01*
X10207093Y-16665294D02*
X10188045Y-16665294D01*
X10188045Y-16665294D02*
X10168997Y-16655771D01*
X10168997Y-16655771D02*
X10159473Y-16646247D01*
X10159473Y-16646247D02*
X10149950Y-16627199D01*
X10149950Y-16627199D02*
X10140426Y-16589104D01*
X10140426Y-16589104D02*
X10140426Y-16541485D01*
X10140426Y-16541485D02*
X10149950Y-16503390D01*
X10149950Y-16503390D02*
X10159473Y-16484342D01*
X10159473Y-16484342D02*
X10168997Y-16474818D01*
X10168997Y-16474818D02*
X10188045Y-16465294D01*
X10340426Y-16646247D02*
X10349950Y-16655771D01*
X10349950Y-16655771D02*
X10340426Y-16665294D01*
X10340426Y-16665294D02*
X10330902Y-16655771D01*
X10330902Y-16655771D02*
X10340426Y-16646247D01*
X10340426Y-16646247D02*
X10340426Y-16665294D01*
X10473759Y-16465294D02*
X10492807Y-16465294D01*
X10492807Y-16465294D02*
X10511854Y-16474818D01*
X10511854Y-16474818D02*
X10521378Y-16484342D01*
X10521378Y-16484342D02*
X10530902Y-16503390D01*
X10530902Y-16503390D02*
X10540426Y-16541485D01*
X10540426Y-16541485D02*
X10540426Y-16589104D01*
X10540426Y-16589104D02*
X10530902Y-16627199D01*
X10530902Y-16627199D02*
X10521378Y-16646247D01*
X10521378Y-16646247D02*
X10511854Y-16655771D01*
X10511854Y-16655771D02*
X10492807Y-16665294D01*
X10492807Y-16665294D02*
X10473759Y-16665294D01*
X10473759Y-16665294D02*
X10454712Y-16655771D01*
X10454712Y-16655771D02*
X10445188Y-16646247D01*
X10445188Y-16646247D02*
X10435664Y-16627199D01*
X10435664Y-16627199D02*
X10426140Y-16589104D01*
X10426140Y-16589104D02*
X10426140Y-16541485D01*
X10426140Y-16541485D02*
X10435664Y-16503390D01*
X10435664Y-16503390D02*
X10445188Y-16484342D01*
X10445188Y-16484342D02*
X10454712Y-16474818D01*
X10454712Y-16474818D02*
X10473759Y-16465294D01*
X10711854Y-16531961D02*
X10711854Y-16665294D01*
X10664235Y-16455771D02*
X10616616Y-16598628D01*
X10616616Y-16598628D02*
X10740426Y-16598628D01*
X10797569Y-16465294D02*
X10921378Y-16465294D01*
X10921378Y-16465294D02*
X10854712Y-16541485D01*
X10854712Y-16541485D02*
X10883283Y-16541485D01*
X10883283Y-16541485D02*
X10902331Y-16551009D01*
X10902331Y-16551009D02*
X10911854Y-16560533D01*
X10911854Y-16560533D02*
X10921378Y-16579580D01*
X10921378Y-16579580D02*
X10921378Y-16627199D01*
X10921378Y-16627199D02*
X10911854Y-16646247D01*
X10911854Y-16646247D02*
X10902331Y-16655771D01*
X10902331Y-16655771D02*
X10883283Y-16665294D01*
X10883283Y-16665294D02*
X10826140Y-16665294D01*
X10826140Y-16665294D02*
X10807093Y-16655771D01*
X10807093Y-16655771D02*
X10797569Y-16646247D01*
X10988045Y-16465294D02*
X11111854Y-16465294D01*
X11111854Y-16465294D02*
X11045188Y-16541485D01*
X11045188Y-16541485D02*
X11073759Y-16541485D01*
X11073759Y-16541485D02*
X11092807Y-16551009D01*
X11092807Y-16551009D02*
X11102331Y-16560533D01*
X11102331Y-16560533D02*
X11111854Y-16579580D01*
X11111854Y-16579580D02*
X11111854Y-16627199D01*
X11111854Y-16627199D02*
X11102331Y-16646247D01*
X11102331Y-16646247D02*
X11092807Y-16655771D01*
X11092807Y-16655771D02*
X11073759Y-16665294D01*
X11073759Y-16665294D02*
X11016616Y-16665294D01*
X11016616Y-16665294D02*
X10997569Y-16655771D01*
X10997569Y-16655771D02*
X10988045Y-16646247D01*
X11188045Y-16465294D02*
X11188045Y-16503390D01*
X11264235Y-16465294D02*
X11264235Y-16503390D01*
X11559474Y-16741485D02*
X11549950Y-16731961D01*
X11549950Y-16731961D02*
X11530902Y-16703390D01*
X11530902Y-16703390D02*
X11521378Y-16684342D01*
X11521378Y-16684342D02*
X11511854Y-16655771D01*
X11511854Y-16655771D02*
X11502331Y-16608152D01*
X11502331Y-16608152D02*
X11502331Y-16570056D01*
X11502331Y-16570056D02*
X11511854Y-16522437D01*
X11511854Y-16522437D02*
X11521378Y-16493866D01*
X11521378Y-16493866D02*
X11530902Y-16474818D01*
X11530902Y-16474818D02*
X11549950Y-16446247D01*
X11549950Y-16446247D02*
X11559474Y-16436723D01*
X11721378Y-16465294D02*
X11683283Y-16465294D01*
X11683283Y-16465294D02*
X11664235Y-16474818D01*
X11664235Y-16474818D02*
X11654712Y-16484342D01*
X11654712Y-16484342D02*
X11635664Y-16512913D01*
X11635664Y-16512913D02*
X11626140Y-16551009D01*
X11626140Y-16551009D02*
X11626140Y-16627199D01*
X11626140Y-16627199D02*
X11635664Y-16646247D01*
X11635664Y-16646247D02*
X11645188Y-16655771D01*
X11645188Y-16655771D02*
X11664235Y-16665294D01*
X11664235Y-16665294D02*
X11702331Y-16665294D01*
X11702331Y-16665294D02*
X11721378Y-16655771D01*
X11721378Y-16655771D02*
X11730902Y-16646247D01*
X11730902Y-16646247D02*
X11740426Y-16627199D01*
X11740426Y-16627199D02*
X11740426Y-16579580D01*
X11740426Y-16579580D02*
X11730902Y-16560533D01*
X11730902Y-16560533D02*
X11721378Y-16551009D01*
X11721378Y-16551009D02*
X11702331Y-16541485D01*
X11702331Y-16541485D02*
X11664235Y-16541485D01*
X11664235Y-16541485D02*
X11645188Y-16551009D01*
X11645188Y-16551009D02*
X11635664Y-16560533D01*
X11635664Y-16560533D02*
X11626140Y-16579580D01*
X11978521Y-16665294D02*
X11978521Y-16465294D01*
X12064235Y-16665294D02*
X12064235Y-16560533D01*
X12064235Y-16560533D02*
X12054712Y-16541485D01*
X12054712Y-16541485D02*
X12035664Y-16531961D01*
X12035664Y-16531961D02*
X12007093Y-16531961D01*
X12007093Y-16531961D02*
X11988045Y-16541485D01*
X11988045Y-16541485D02*
X11978521Y-16551009D01*
X12188045Y-16665294D02*
X12168997Y-16655771D01*
X12168997Y-16655771D02*
X12159474Y-16646247D01*
X12159474Y-16646247D02*
X12149950Y-16627199D01*
X12149950Y-16627199D02*
X12149950Y-16570056D01*
X12149950Y-16570056D02*
X12159474Y-16551009D01*
X12159474Y-16551009D02*
X12168997Y-16541485D01*
X12168997Y-16541485D02*
X12188045Y-16531961D01*
X12188045Y-16531961D02*
X12216616Y-16531961D01*
X12216616Y-16531961D02*
X12235664Y-16541485D01*
X12235664Y-16541485D02*
X12245188Y-16551009D01*
X12245188Y-16551009D02*
X12254712Y-16570056D01*
X12254712Y-16570056D02*
X12254712Y-16627199D01*
X12254712Y-16627199D02*
X12245188Y-16646247D01*
X12245188Y-16646247D02*
X12235664Y-16655771D01*
X12235664Y-16655771D02*
X12216616Y-16665294D01*
X12216616Y-16665294D02*
X12188045Y-16665294D01*
X12368997Y-16665294D02*
X12349950Y-16655771D01*
X12349950Y-16655771D02*
X12340426Y-16636723D01*
X12340426Y-16636723D02*
X12340426Y-16465294D01*
X12521378Y-16655771D02*
X12502331Y-16665294D01*
X12502331Y-16665294D02*
X12464235Y-16665294D01*
X12464235Y-16665294D02*
X12445188Y-16655771D01*
X12445188Y-16655771D02*
X12435664Y-16636723D01*
X12435664Y-16636723D02*
X12435664Y-16560533D01*
X12435664Y-16560533D02*
X12445188Y-16541485D01*
X12445188Y-16541485D02*
X12464235Y-16531961D01*
X12464235Y-16531961D02*
X12502331Y-16531961D01*
X12502331Y-16531961D02*
X12521378Y-16541485D01*
X12521378Y-16541485D02*
X12530902Y-16560533D01*
X12530902Y-16560533D02*
X12530902Y-16579580D01*
X12530902Y-16579580D02*
X12435664Y-16598628D01*
X12607093Y-16655771D02*
X12626140Y-16665294D01*
X12626140Y-16665294D02*
X12664235Y-16665294D01*
X12664235Y-16665294D02*
X12683283Y-16655771D01*
X12683283Y-16655771D02*
X12692807Y-16636723D01*
X12692807Y-16636723D02*
X12692807Y-16627199D01*
X12692807Y-16627199D02*
X12683283Y-16608152D01*
X12683283Y-16608152D02*
X12664235Y-16598628D01*
X12664235Y-16598628D02*
X12635664Y-16598628D01*
X12635664Y-16598628D02*
X12616616Y-16589104D01*
X12616616Y-16589104D02*
X12607093Y-16570056D01*
X12607093Y-16570056D02*
X12607093Y-16560533D01*
X12607093Y-16560533D02*
X12616616Y-16541485D01*
X12616616Y-16541485D02*
X12635664Y-16531961D01*
X12635664Y-16531961D02*
X12664235Y-16531961D01*
X12664235Y-16531961D02*
X12683283Y-16541485D01*
X12759474Y-16741485D02*
X12768997Y-16731961D01*
X12768997Y-16731961D02*
X12788045Y-16703390D01*
X12788045Y-16703390D02*
X12797569Y-16684342D01*
X12797569Y-16684342D02*
X12807093Y-16655771D01*
X12807093Y-16655771D02*
X12816616Y-16608152D01*
X12816616Y-16608152D02*
X12816616Y-16570056D01*
X12816616Y-16570056D02*
X12807093Y-16522437D01*
X12807093Y-16522437D02*
X12797569Y-16493866D01*
X12797569Y-16493866D02*
X12788045Y-16474818D01*
X12788045Y-16474818D02*
X12768997Y-16446247D01*
X12768997Y-16446247D02*
X12759474Y-16436723D01*
X7784411Y-16737811D02*
X7984411Y-16937811D01*
X7984411Y-16737811D02*
X7784411Y-16937811D01*
X7884411Y-16737811D02*
X7884411Y-16937811D01*
X7784411Y-16837811D02*
X7984411Y-16837811D01*
X8235664Y-16748342D02*
X8245187Y-16738818D01*
X8245187Y-16738818D02*
X8264235Y-16729294D01*
X8264235Y-16729294D02*
X8311854Y-16729294D01*
X8311854Y-16729294D02*
X8330902Y-16738818D01*
X8330902Y-16738818D02*
X8340426Y-16748342D01*
X8340426Y-16748342D02*
X8349949Y-16767390D01*
X8349949Y-16767390D02*
X8349949Y-16786437D01*
X8349949Y-16786437D02*
X8340426Y-16815009D01*
X8340426Y-16815009D02*
X8226140Y-16929295D01*
X8226140Y-16929295D02*
X8349949Y-16929295D01*
X8435664Y-16910247D02*
X8445188Y-16919771D01*
X8445188Y-16919771D02*
X8435664Y-16929295D01*
X8435664Y-16929295D02*
X8426140Y-16919771D01*
X8426140Y-16919771D02*
X8435664Y-16910247D01*
X8435664Y-16910247D02*
X8435664Y-16929295D01*
X8511854Y-16729294D02*
X8635664Y-16729294D01*
X8635664Y-16729294D02*
X8568997Y-16805485D01*
X8568997Y-16805485D02*
X8597569Y-16805485D01*
X8597569Y-16805485D02*
X8616616Y-16815009D01*
X8616616Y-16815009D02*
X8626140Y-16824533D01*
X8626140Y-16824533D02*
X8635664Y-16843580D01*
X8635664Y-16843580D02*
X8635664Y-16891199D01*
X8635664Y-16891199D02*
X8626140Y-16910247D01*
X8626140Y-16910247D02*
X8616616Y-16919771D01*
X8616616Y-16919771D02*
X8597569Y-16929295D01*
X8597569Y-16929295D02*
X8540426Y-16929295D01*
X8540426Y-16929295D02*
X8521378Y-16919771D01*
X8521378Y-16919771D02*
X8511854Y-16910247D01*
X8759473Y-16729294D02*
X8778521Y-16729294D01*
X8778521Y-16729294D02*
X8797569Y-16738818D01*
X8797569Y-16738818D02*
X8807092Y-16748342D01*
X8807092Y-16748342D02*
X8816616Y-16767390D01*
X8816616Y-16767390D02*
X8826140Y-16805485D01*
X8826140Y-16805485D02*
X8826140Y-16853104D01*
X8826140Y-16853104D02*
X8816616Y-16891199D01*
X8816616Y-16891199D02*
X8807092Y-16910247D01*
X8807092Y-16910247D02*
X8797569Y-16919771D01*
X8797569Y-16919771D02*
X8778521Y-16929295D01*
X8778521Y-16929295D02*
X8759473Y-16929295D01*
X8759473Y-16929295D02*
X8740426Y-16919771D01*
X8740426Y-16919771D02*
X8730902Y-16910247D01*
X8730902Y-16910247D02*
X8721378Y-16891199D01*
X8721378Y-16891199D02*
X8711854Y-16853104D01*
X8711854Y-16853104D02*
X8711854Y-16805485D01*
X8711854Y-16805485D02*
X8721378Y-16767390D01*
X8721378Y-16767390D02*
X8730902Y-16748342D01*
X8730902Y-16748342D02*
X8740426Y-16738818D01*
X8740426Y-16738818D02*
X8759473Y-16729294D01*
X8949949Y-16729294D02*
X8968997Y-16729294D01*
X8968997Y-16729294D02*
X8988045Y-16738818D01*
X8988045Y-16738818D02*
X8997569Y-16748342D01*
X8997569Y-16748342D02*
X9007092Y-16767390D01*
X9007092Y-16767390D02*
X9016616Y-16805485D01*
X9016616Y-16805485D02*
X9016616Y-16853104D01*
X9016616Y-16853104D02*
X9007092Y-16891199D01*
X9007092Y-16891199D02*
X8997569Y-16910247D01*
X8997569Y-16910247D02*
X8988045Y-16919771D01*
X8988045Y-16919771D02*
X8968997Y-16929295D01*
X8968997Y-16929295D02*
X8949949Y-16929295D01*
X8949949Y-16929295D02*
X8930902Y-16919771D01*
X8930902Y-16919771D02*
X8921378Y-16910247D01*
X8921378Y-16910247D02*
X8911854Y-16891199D01*
X8911854Y-16891199D02*
X8902330Y-16853104D01*
X8902330Y-16853104D02*
X8902330Y-16805485D01*
X8902330Y-16805485D02*
X8911854Y-16767390D01*
X8911854Y-16767390D02*
X8921378Y-16748342D01*
X8921378Y-16748342D02*
X8930902Y-16738818D01*
X8930902Y-16738818D02*
X8949949Y-16729294D01*
X9102330Y-16929295D02*
X9102330Y-16795961D01*
X9102330Y-16815009D02*
X9111854Y-16805485D01*
X9111854Y-16805485D02*
X9130902Y-16795961D01*
X9130902Y-16795961D02*
X9159473Y-16795961D01*
X9159473Y-16795961D02*
X9178521Y-16805485D01*
X9178521Y-16805485D02*
X9188045Y-16824533D01*
X9188045Y-16824533D02*
X9188045Y-16929295D01*
X9188045Y-16824533D02*
X9197569Y-16805485D01*
X9197569Y-16805485D02*
X9216616Y-16795961D01*
X9216616Y-16795961D02*
X9245188Y-16795961D01*
X9245188Y-16795961D02*
X9264235Y-16805485D01*
X9264235Y-16805485D02*
X9273759Y-16824533D01*
X9273759Y-16824533D02*
X9273759Y-16929295D01*
X9368997Y-16929295D02*
X9368997Y-16795961D01*
X9368997Y-16815009D02*
X9378521Y-16805485D01*
X9378521Y-16805485D02*
X9397569Y-16795961D01*
X9397569Y-16795961D02*
X9426140Y-16795961D01*
X9426140Y-16795961D02*
X9445188Y-16805485D01*
X9445188Y-16805485D02*
X9454711Y-16824533D01*
X9454711Y-16824533D02*
X9454711Y-16929295D01*
X9454711Y-16824533D02*
X9464235Y-16805485D01*
X9464235Y-16805485D02*
X9483283Y-16795961D01*
X9483283Y-16795961D02*
X9511854Y-16795961D01*
X9511854Y-16795961D02*
X9530902Y-16805485D01*
X9530902Y-16805485D02*
X9540426Y-16824533D01*
X9540426Y-16824533D02*
X9540426Y-16929295D01*
X9930902Y-16719771D02*
X9759473Y-16976914D01*
X10188045Y-16729294D02*
X10207093Y-16729294D01*
X10207093Y-16729294D02*
X10226140Y-16738818D01*
X10226140Y-16738818D02*
X10235664Y-16748342D01*
X10235664Y-16748342D02*
X10245188Y-16767390D01*
X10245188Y-16767390D02*
X10254712Y-16805485D01*
X10254712Y-16805485D02*
X10254712Y-16853104D01*
X10254712Y-16853104D02*
X10245188Y-16891199D01*
X10245188Y-16891199D02*
X10235664Y-16910247D01*
X10235664Y-16910247D02*
X10226140Y-16919771D01*
X10226140Y-16919771D02*
X10207093Y-16929295D01*
X10207093Y-16929295D02*
X10188045Y-16929295D01*
X10188045Y-16929295D02*
X10168997Y-16919771D01*
X10168997Y-16919771D02*
X10159473Y-16910247D01*
X10159473Y-16910247D02*
X10149950Y-16891199D01*
X10149950Y-16891199D02*
X10140426Y-16853104D01*
X10140426Y-16853104D02*
X10140426Y-16805485D01*
X10140426Y-16805485D02*
X10149950Y-16767390D01*
X10149950Y-16767390D02*
X10159473Y-16748342D01*
X10159473Y-16748342D02*
X10168997Y-16738818D01*
X10168997Y-16738818D02*
X10188045Y-16729294D01*
X10340426Y-16910247D02*
X10349950Y-16919771D01*
X10349950Y-16919771D02*
X10340426Y-16929295D01*
X10340426Y-16929295D02*
X10330902Y-16919771D01*
X10330902Y-16919771D02*
X10340426Y-16910247D01*
X10340426Y-16910247D02*
X10340426Y-16929295D01*
X10473759Y-16729294D02*
X10492807Y-16729294D01*
X10492807Y-16729294D02*
X10511854Y-16738818D01*
X10511854Y-16738818D02*
X10521378Y-16748342D01*
X10521378Y-16748342D02*
X10530902Y-16767390D01*
X10530902Y-16767390D02*
X10540426Y-16805485D01*
X10540426Y-16805485D02*
X10540426Y-16853104D01*
X10540426Y-16853104D02*
X10530902Y-16891199D01*
X10530902Y-16891199D02*
X10521378Y-16910247D01*
X10521378Y-16910247D02*
X10511854Y-16919771D01*
X10511854Y-16919771D02*
X10492807Y-16929295D01*
X10492807Y-16929295D02*
X10473759Y-16929295D01*
X10473759Y-16929295D02*
X10454712Y-16919771D01*
X10454712Y-16919771D02*
X10445188Y-16910247D01*
X10445188Y-16910247D02*
X10435664Y-16891199D01*
X10435664Y-16891199D02*
X10426140Y-16853104D01*
X10426140Y-16853104D02*
X10426140Y-16805485D01*
X10426140Y-16805485D02*
X10435664Y-16767390D01*
X10435664Y-16767390D02*
X10445188Y-16748342D01*
X10445188Y-16748342D02*
X10454712Y-16738818D01*
X10454712Y-16738818D02*
X10473759Y-16729294D01*
X10635664Y-16929295D02*
X10673759Y-16929295D01*
X10673759Y-16929295D02*
X10692807Y-16919771D01*
X10692807Y-16919771D02*
X10702331Y-16910247D01*
X10702331Y-16910247D02*
X10721378Y-16881675D01*
X10721378Y-16881675D02*
X10730902Y-16843580D01*
X10730902Y-16843580D02*
X10730902Y-16767390D01*
X10730902Y-16767390D02*
X10721378Y-16748342D01*
X10721378Y-16748342D02*
X10711854Y-16738818D01*
X10711854Y-16738818D02*
X10692807Y-16729294D01*
X10692807Y-16729294D02*
X10654712Y-16729294D01*
X10654712Y-16729294D02*
X10635664Y-16738818D01*
X10635664Y-16738818D02*
X10626140Y-16748342D01*
X10626140Y-16748342D02*
X10616616Y-16767390D01*
X10616616Y-16767390D02*
X10616616Y-16815009D01*
X10616616Y-16815009D02*
X10626140Y-16834056D01*
X10626140Y-16834056D02*
X10635664Y-16843580D01*
X10635664Y-16843580D02*
X10654712Y-16853104D01*
X10654712Y-16853104D02*
X10692807Y-16853104D01*
X10692807Y-16853104D02*
X10711854Y-16843580D01*
X10711854Y-16843580D02*
X10721378Y-16834056D01*
X10721378Y-16834056D02*
X10730902Y-16815009D01*
X10854712Y-16729294D02*
X10873759Y-16729294D01*
X10873759Y-16729294D02*
X10892807Y-16738818D01*
X10892807Y-16738818D02*
X10902331Y-16748342D01*
X10902331Y-16748342D02*
X10911854Y-16767390D01*
X10911854Y-16767390D02*
X10921378Y-16805485D01*
X10921378Y-16805485D02*
X10921378Y-16853104D01*
X10921378Y-16853104D02*
X10911854Y-16891199D01*
X10911854Y-16891199D02*
X10902331Y-16910247D01*
X10902331Y-16910247D02*
X10892807Y-16919771D01*
X10892807Y-16919771D02*
X10873759Y-16929295D01*
X10873759Y-16929295D02*
X10854712Y-16929295D01*
X10854712Y-16929295D02*
X10835664Y-16919771D01*
X10835664Y-16919771D02*
X10826140Y-16910247D01*
X10826140Y-16910247D02*
X10816616Y-16891199D01*
X10816616Y-16891199D02*
X10807093Y-16853104D01*
X10807093Y-16853104D02*
X10807093Y-16805485D01*
X10807093Y-16805485D02*
X10816616Y-16767390D01*
X10816616Y-16767390D02*
X10826140Y-16748342D01*
X10826140Y-16748342D02*
X10835664Y-16738818D01*
X10835664Y-16738818D02*
X10854712Y-16729294D01*
X11092807Y-16729294D02*
X11054712Y-16729294D01*
X11054712Y-16729294D02*
X11035664Y-16738818D01*
X11035664Y-16738818D02*
X11026140Y-16748342D01*
X11026140Y-16748342D02*
X11007093Y-16776913D01*
X11007093Y-16776913D02*
X10997569Y-16815009D01*
X10997569Y-16815009D02*
X10997569Y-16891199D01*
X10997569Y-16891199D02*
X11007093Y-16910247D01*
X11007093Y-16910247D02*
X11016616Y-16919771D01*
X11016616Y-16919771D02*
X11035664Y-16929295D01*
X11035664Y-16929295D02*
X11073759Y-16929295D01*
X11073759Y-16929295D02*
X11092807Y-16919771D01*
X11092807Y-16919771D02*
X11102331Y-16910247D01*
X11102331Y-16910247D02*
X11111854Y-16891199D01*
X11111854Y-16891199D02*
X11111854Y-16843580D01*
X11111854Y-16843580D02*
X11102331Y-16824533D01*
X11102331Y-16824533D02*
X11092807Y-16815009D01*
X11092807Y-16815009D02*
X11073759Y-16805485D01*
X11073759Y-16805485D02*
X11035664Y-16805485D01*
X11035664Y-16805485D02*
X11016616Y-16815009D01*
X11016616Y-16815009D02*
X11007093Y-16824533D01*
X11007093Y-16824533D02*
X10997569Y-16843580D01*
X11188045Y-16729294D02*
X11188045Y-16767390D01*
X11264235Y-16729294D02*
X11264235Y-16767390D01*
X11559474Y-17005485D02*
X11549950Y-16995961D01*
X11549950Y-16995961D02*
X11530902Y-16967390D01*
X11530902Y-16967390D02*
X11521378Y-16948342D01*
X11521378Y-16948342D02*
X11511854Y-16919771D01*
X11511854Y-16919771D02*
X11502331Y-16872152D01*
X11502331Y-16872152D02*
X11502331Y-16834056D01*
X11502331Y-16834056D02*
X11511854Y-16786437D01*
X11511854Y-16786437D02*
X11521378Y-16757866D01*
X11521378Y-16757866D02*
X11530902Y-16738818D01*
X11530902Y-16738818D02*
X11549950Y-16710247D01*
X11549950Y-16710247D02*
X11559474Y-16700723D01*
X11626140Y-16748342D02*
X11635664Y-16738818D01*
X11635664Y-16738818D02*
X11654712Y-16729294D01*
X11654712Y-16729294D02*
X11702331Y-16729294D01*
X11702331Y-16729294D02*
X11721378Y-16738818D01*
X11721378Y-16738818D02*
X11730902Y-16748342D01*
X11730902Y-16748342D02*
X11740426Y-16767390D01*
X11740426Y-16767390D02*
X11740426Y-16786437D01*
X11740426Y-16786437D02*
X11730902Y-16815009D01*
X11730902Y-16815009D02*
X11616616Y-16929295D01*
X11616616Y-16929295D02*
X11740426Y-16929295D01*
X11978521Y-16929295D02*
X11978521Y-16729294D01*
X12064235Y-16929295D02*
X12064235Y-16824533D01*
X12064235Y-16824533D02*
X12054712Y-16805485D01*
X12054712Y-16805485D02*
X12035664Y-16795961D01*
X12035664Y-16795961D02*
X12007093Y-16795961D01*
X12007093Y-16795961D02*
X11988045Y-16805485D01*
X11988045Y-16805485D02*
X11978521Y-16815009D01*
X12188045Y-16929295D02*
X12168997Y-16919771D01*
X12168997Y-16919771D02*
X12159474Y-16910247D01*
X12159474Y-16910247D02*
X12149950Y-16891199D01*
X12149950Y-16891199D02*
X12149950Y-16834056D01*
X12149950Y-16834056D02*
X12159474Y-16815009D01*
X12159474Y-16815009D02*
X12168997Y-16805485D01*
X12168997Y-16805485D02*
X12188045Y-16795961D01*
X12188045Y-16795961D02*
X12216616Y-16795961D01*
X12216616Y-16795961D02*
X12235664Y-16805485D01*
X12235664Y-16805485D02*
X12245188Y-16815009D01*
X12245188Y-16815009D02*
X12254712Y-16834056D01*
X12254712Y-16834056D02*
X12254712Y-16891199D01*
X12254712Y-16891199D02*
X12245188Y-16910247D01*
X12245188Y-16910247D02*
X12235664Y-16919771D01*
X12235664Y-16919771D02*
X12216616Y-16929295D01*
X12216616Y-16929295D02*
X12188045Y-16929295D01*
X12368997Y-16929295D02*
X12349950Y-16919771D01*
X12349950Y-16919771D02*
X12340426Y-16900723D01*
X12340426Y-16900723D02*
X12340426Y-16729294D01*
X12521378Y-16919771D02*
X12502331Y-16929295D01*
X12502331Y-16929295D02*
X12464235Y-16929295D01*
X12464235Y-16929295D02*
X12445188Y-16919771D01*
X12445188Y-16919771D02*
X12435664Y-16900723D01*
X12435664Y-16900723D02*
X12435664Y-16824533D01*
X12435664Y-16824533D02*
X12445188Y-16805485D01*
X12445188Y-16805485D02*
X12464235Y-16795961D01*
X12464235Y-16795961D02*
X12502331Y-16795961D01*
X12502331Y-16795961D02*
X12521378Y-16805485D01*
X12521378Y-16805485D02*
X12530902Y-16824533D01*
X12530902Y-16824533D02*
X12530902Y-16843580D01*
X12530902Y-16843580D02*
X12435664Y-16862628D01*
X12607093Y-16919771D02*
X12626140Y-16929295D01*
X12626140Y-16929295D02*
X12664235Y-16929295D01*
X12664235Y-16929295D02*
X12683283Y-16919771D01*
X12683283Y-16919771D02*
X12692807Y-16900723D01*
X12692807Y-16900723D02*
X12692807Y-16891199D01*
X12692807Y-16891199D02*
X12683283Y-16872152D01*
X12683283Y-16872152D02*
X12664235Y-16862628D01*
X12664235Y-16862628D02*
X12635664Y-16862628D01*
X12635664Y-16862628D02*
X12616616Y-16853104D01*
X12616616Y-16853104D02*
X12607093Y-16834056D01*
X12607093Y-16834056D02*
X12607093Y-16824533D01*
X12607093Y-16824533D02*
X12616616Y-16805485D01*
X12616616Y-16805485D02*
X12635664Y-16795961D01*
X12635664Y-16795961D02*
X12664235Y-16795961D01*
X12664235Y-16795961D02*
X12683283Y-16805485D01*
X12759474Y-17005485D02*
X12768997Y-16995961D01*
X12768997Y-16995961D02*
X12788045Y-16967390D01*
X12788045Y-16967390D02*
X12797569Y-16948342D01*
X12797569Y-16948342D02*
X12807093Y-16919771D01*
X12807093Y-16919771D02*
X12816616Y-16872152D01*
X12816616Y-16872152D02*
X12816616Y-16834056D01*
X12816616Y-16834056D02*
X12807093Y-16786437D01*
X12807093Y-16786437D02*
X12797569Y-16757866D01*
X12797569Y-16757866D02*
X12788045Y-16738818D01*
X12788045Y-16738818D02*
X12768997Y-16710247D01*
X12768997Y-16710247D02*
X12759474Y-16700723D01*
M02*
